/* XPM */
static const char *_[] = {
/* columns rows colors chars-per-pixel */
"65 65 196 2 ",
"   c #161C2E",
".  c #1E2431",
"X  c #242735",
"o  c #242B34",
"O  c #292E34",
"+  c #2B2E3A",
"@  c #273132",
"#  c #2C3234",
"$  c #293338",
"%  c #2C3B39",
"&  c #313636",
"*  c #333C36",
"=  c #33353C",
"-  c #343A3B",
";  c #393C3A",
":  c #364135",
">  c #3C4236",
",  c #3D4A36",
"<  c #32423C",
"1  c #39473C",
"2  c #404A37",
"3  c #43453A",
"4  c #414E38",
"5  c #445139",
"6  c #4A553A",
"7  c #4C5B3B",
"8  c #55573E",
"9  c #595A3E",
"0  c #4D603E",
"q  c #52643D",
"w  c #59653E",
"e  c #5E713E",
"r  c #60733F",
"t  c #3B3B41",
"y  c #423F45",
"u  c #384840",
"i  c #3B5041",
"p  c #434245",
"a  c #4C4D47",
"s  c #4B4848",
"d  c #514E4D",
"f  c #405643",
"g  c #4B5645",
"h  c #455F46",
"j  c #535645",
"k  c #5C5D41",
"l  c #55554A",
"z  c #5C5C4E",
"x  c #554F50",
"c  c #5A5551",
"v  c #5F5855",
"b  c #625B56",
"n  c #675C59",
"m  c #695F5B",
"M  c #476146",
"N  c #536C46",
"B  c #5B6D42",
"V  c #54684A",
"C  c #5B7243",
"Z  c #54744E",
"A  c #59744C",
"S  c #5E7D4F",
"D  c #5A7C51",
"F  c #636742",
"G  c #6A6A44",
"H  c #637441",
"J  c #6C7443",
"K  c #647940",
"L  c #6A7E41",
"P  c #767647",
"I  c #797747",
"U  c #747C45",
"Y  c #686759",
"T  c #70645E",
"R  c #716A5E",
"E  c #7C6F64",
"W  c #7E7464",
"Q  c #817F49",
"!  c #847569",
"~  c #877D69",
"^  c #8E7E6E",
"/  c #937F71",
"(  c #5E8254",
")  c #6B8142",
"_  c #63814C",
"`  c #718544",
"'  c #748C44",
"]  c #798F45",
"[  c #728B4C",
"{  c #7D9546",
"}  c #79954A",
"|  c #698954",
" . c #7C8F53",
".. c #6B955B",
"X. c #7C9C52",
"o. c #719C5E",
"O. c #7CA35A",
"+. c #5B8065",
"@. c #6F976F",
"#. c #6D996F",
"$. c #759B68",
"%. c #739B6D",
"&. c #7C9C6C",
"*. c #648D71",
"=. c #6A9472",
"-. c #6C9572",
";. c #729671",
":. c #769970",
">. c #799970",
",. c #75A364",
"<. c #7CA465",
"1. c #7BA962",
"2. c #74A168",
"3. c #7FA06A",
"4. c #83834B",
"5. c #8A894C",
"6. c #849E48",
"7. c #8C994B",
"8. c #92904E",
"9. c #96984E",
"0. c #8B9E57",
"q. c #959551",
"w. c #999650",
"e. c #969C53",
"r. c #A39F52",
"t. c #8AA549",
"y. c #8AA84C",
"u. c #91AC4B",
"i. c #99A94F",
"p. c #95B24C",
"a. c #9BB94E",
"s. c #8AAC54",
"d. c #82A659",
"f. c #84AD5D",
"g. c #8AAE5B",
"h. c #9AA957",
"j. c #93AF5D",
"k. c #8EB256",
"l. c #8AB059",
"z. c #94B553",
"x. c #9AB652",
"c. c #9DB950",
"v. c #93B15A",
"b. c #9BB25C",
"n. c #AAA655",
"m. c #A4AC52",
"M. c #B1AD57",
"N. c #A4B754",
"B. c #ABB556",
"V. c #A3B951",
"C. c #ABB954",
"Z. c #A3B35D",
"A. c #ACB55C",
"S. c #AFB859",
"D. c #B3B357",
"F. c #B2BA56",
"G. c #B4B55D",
"H. c #B8B45A",
"J. c #B5B959",
"K. c #BCBA5A",
"L. c #8D826D",
"P. c #819361",
"I. c #849E6C",
"U. c #948272",
"Y. c #9B8675",
"T. c #958970",
"R. c #9C8D75",
"E. c #9E9174",
"W. c #A49379",
"Q. c #AC947E",
"!. c #A69879",
"~. c #AE9C7E",
"^. c #B09F7E",
"/. c #83A562",
"(. c #8BA565",
"). c #82AA61",
"_. c #8CAC61",
"`. c #84A169",
"'. c #8CA26A",
"]. c #93A767",
"[. c #98A767",
"{. c #94AE61",
"}. c #9CAA64",
"|. c #93A568",
" X c #99B060",
".X c #A3AD63",
"XX c #A4B060",
"oX c #ACB161",
"OX c #B0A07E",
"+X c #B89C84",
"@X c #B5A481",
"#X c #BDA386",
"$X c #BFAC85",
"%X c #C9AC8E",
"&X c #CBB48D",
"*X c #CCB88D",
/* pixels */
"&X%XY.  X OXT.&X%Xx o o E / %XE   p OXT.p 3   @ @ = X OXT.Y.  b &Xb # O o   # #   p b 3 # E y   W y @ b T.b # 3 x &X%X%Xp X ^.%X%X",
"%X%X- t.` . @ p - - o.( & 8 p 3 M.> % f F K.8 ] L O 8 # 6 t ..% R O M.n...A n.n.% D G K.n.O > M.I 6 p.: 1 o Q K.j T ! c 6 t.- $X*X",
"%X$X# u.a.r a.K t.u. .| w.K.P H.H.9 h ).e.K.i.a.K i.F.X.a.u.l.1 n.F 8.K.Z.H.K.4.U D.q.V.c.i.F M.F.U u.} d.q.5.n.I M.I u p.a.7 OX*X",
"~.= i < f.a.a.u.] C.C.K.K.K.B.K.B.D.U e.K.K.K.V.V.a.a.k.a.a.c.V.F.K.H.F.K.K.F.M.F.K.K.K.F.V.V.a.a.a.a.a.C.C.D.D.K.F.4.( z.) * b &X",
"T.f 1.s.x.a.a.a.a.a.a.a.V.V.c.C.a.a.a.S.K.F.K.K.K.F.C.C.V.a.a.a.a.a.S.a.V.a.a.a.c.K.J.F.K.K.K.C.C.C.a.a.a.a.a.V.V.p.t.1.f.u.a.6 Q.",
"OX= Z [ k.k.1.1.f.V.F.F.c.c.a.z.x.a.a.a.a.a.a.a.x.f.1.1.f.1.x.V.K.C.c.x.x.k.a.a.a.a.a.a.a.a.k.1.1.1.f.f.c.S.F.V.c.a.1.1.a.L L # #X",
"*X- t.K x.x.1.f.1._.A.J.Z.f.f.k.f.x.x.1.z.k.x.l.1.f.x.l.1.f.).b.K.A.b.f.f.k.g.a.l.f.x.z.x.g.1.z.x.1.f.f.).A.J.Z.g.f.k.f.x.a.5 L.*X",
"*Xa t.u.a.p.p.a.j.f.z.g.k.f.z.g.1.z.f.f.O.1.g.x.x.x.x.x.a.c.g.g.x.g.k.f.k.1.f.z.1.f.1.f.l.a.x.x.x.x.a.v.f.z.g.k.f.z.k.1.1.l.N R *X",
"*X~ # 6 * B F K.K..X-.|.[._.1.f.f.1.1.x.x.a.x.z.`.`.>.I.b.K.H.&.;.oX3._.1.f.f.1.l.x.a.a.x.g.I.I.&.&.G.K..X;.|.]._.).f.f.f.1.[ 8 v ",
"W G M.G.h.K.H.G.{.Z..XF.F.K.A.V.a.k.)._.{.N.b.}.H.A.G.K.H.A.{.G.XXC.K.K.Z.a.a.).).{.b.C.{.XXH.Z.K.K.H.Z.Z.}.S.F.K.A.V.a.x.).A.K.; ",
"X G w s.l.v.).1.1.1.1.l.z.x.v.x.a.z.V.C.C.C.V.a.b.k.g.v.1.1.1.1.f.k.x.z.b.a.a.x.C.C.C.V.a.V.x.l.v._.1.1.1.1.l.z.x.v.v.a.z.b.0.8 n ",
"OX+ 2 p.z.z.g.f.k.f.1.1.g.g.b.N.a.a.a.a.V.F.K.S.V.a.z.k.g.f.k.1.1.O.g.g.Z.c.a.a.a.a.C.K.K.C.a.x.z.l.f.g.f.1.1.f.g.b.b.a.a.a.z.B W ",
"W B m.c.a.a.a.a.a.x.k.c.S.F.A.G.C.V.c.x.V.C.a.C.C.a.a.a.a.a.a.k.x.N.J.A.Z.J.C.c.c.a.V.V.c.F.V.a.a.a.a.a.x.k.x.S.S.A.G.C.V.c.a.a.- ",
"X K N 1.k.a.a.a.a.a.z.f.l.g.1.).{.{.{.1.f.l.k.k.x.a.a.a.a.a.a.x.l.f.k.1.1.{.{.{._.1.g.l.k.z.x.a.a.a.a.a.a.z.f.g.g.1.1.{.{.{.O.' - ",
"Q.* p.a.k.z.z.f.x.z.f.z.a.V.x.1.k.g.f.f.g.l.k.x.a.a.a.x.g.g.a.g.g.a.a.C.g.g.k.f.f.f.g.k.k.a.a.a.a.z.f.z.z.f.z.a.V.V.1.k.g.f.N . ~.",
"U.4 t.` z.<.'.|.&.&.}.[.N.K.K.b.a.a.V.C.S.S.a.z.f.z.g.%.}.I.&.'.}.b.F.K.A.x.a.c.C.C.F.V.a.g.g.z.<.I.|.I.&.}.}.N.K.K.b.a.a.V.C.& ~ ",
"~.. & Q P.|..XK.H.G.K.K.K.K.K.K.V.V.F.F.F.b./.&.|.-.'.`.H.K.oXK.K.K.K.K.K.F.a.S.F.F.S.g.&.I.I.:.|..XK.K.G.K.K.K.K.K.K.V.a.C.m.J 6 ",
"/ 4 p.F.K.F.K.Z.{.A.S.V.B.{.Z.K.K.V.a.V.S.{.oXA.J.G.J.F.K.{.b.K.V.V.Z.).K.K.S.a.a.V.B..XoXA.J.K.F.K.Z.{.A.S.c.N.{.{.K.K.V.a.c.w.& ",
"Q.* { V.F.f.).1.1.g.x.g.1.f.).x.a.a.C.S.S.K.S.V.a.F.c.1.).1.1.z.z.1.1.1.l.c.a.V.F.C.F.K.C.a.V.S.k.1.1.1.g.x.l.1.f.1.x.c.a.C.K.` # ",
"~.o y.k.f.1.k.1.f.1.1.O.f.a.z.z.a.a.x.z.a.c.a.a.x.l.1.g.g.f.1.1.1.f.x.x.k.x.a.a.z.x.a.a.a.x.k.f.f.k.1.f.1.1.f.g.a.z.k.a.a.t.A a.7 ",
"- L p.C.x.N.a.z.a.x.k.a.x.a.a.x.g.k.1.1.a.a.a.V.S.x.b.V.a.x.a.k.x.x.x.a.a.k.l.g.1.g.a.a.a.V.N.x.N.V.x.a.x.k.x.z.a.a.a.g.k.f.o 6 a ",
"@ p.a.K.K.G.j.k.g.f.1.l.l.l.k.1.1.1.1.1.1.f.x.F.K.K.K.Z.g.l.g.1.f.k.g.k.g.1.1.1.1.1.f.l.c.K.K.K.G.j.l.g.f.1.g.l.l.k.f.1.1.1.Z X.H ",
"W a H K.N.z.z.f.1.1.1.1.2.%.=.%.<.f.2.%.O.x.C.F.K.K.x.x.f.f.1.1.1.,.2.#.=.<.<.f.#.%.g.c.S.J.K.S.z.z.f.1.1.1.1.2.%.=.#.<.l.S D a.] ",
"W k H.K.V.a.a.k.g.1.1.2.:.|.'.:.}.].oX}.].C.C.S.K.F.V.a.x.l.f.1.1.#.I.}.&.'.}.}.G.|.Z.C.C.F.K.C.V.a.z.g.1.1.2.:.|.}.-.}.4.Q & w * ",
"  6 K.S.C.V.a.a.a.b.b.].G.K.H.G.K.K.K.K.K.J.S.a.V.F.C.V.a.a.c.b.}.}.K.K.G.K.K.K.K.K.K.S.V.a.C.S.C.a.a.a.b.b.[.G.K.K.G.K.K.K.5.3 t ",
"R . > K c.c.c.a.a.V.a.C.J.S.V.J.V.S.V.F.K.K.K.C.J.V.c.c.a.a.a.a.V.C.K.V.F.C.V.F.V.K.K.K.F.S.F.c.c.c.a.a.V.a.C.J.S.c.K.V.C.V.7.H.8 ",
"  t.a.i.z.g.v.x.a.a.a.a.a.a.a.c.a.a.a.V.C.V.V.C.C.c.l.g.x.x.a.a.c.a.c.a.a.a.a.a.a.C.V.V.C.C.V.z.g.v.a.a.a.a.a.a.a.a.a.a.a.a.a.F.> ",
"X : , s.1.1.1.1.).B.K.K.F.v.k.f.l.a.a.x.a.a.a.a.l.1.1.1.1.1.b.J.K.K.C.l.k.f.x.a.a.a.a.a.a.x.f.1.1.1.1.1.Z.K.K.F.v.z.f.f.a.a.] @ W ",
"*XX 6 a.x.a.f.x.k.k.b.N.z.z.k.x.k.x.k.1.f.f.k.k.k.x.a.x.l.x.k.z.V.x.z.z.z.x.k.a.1.1.f.f.x.k.k.a.a.g.z.z.k.b.N.z.z.k.x.k.g.l.1.1 ! ",
"X D +.$.f.g.f.V..X;.<.%.<.1.f.1.1.f.1.z.z.k.x.a.g.<.g.<.x.B.`.-./.&.1.1.1.1.1.f.f.x.k.z.x.a.f.<.g.f.V.Z.%./.&.<.1.f.1.1.f.1._ e p ",
"X V o.V }..X.XK.H.G.I.G.G.A.j.x.x.g.1.g.g.x.j.<..XG..XoXG.K.H..X`.K..XA.g.z.x.1.f.g.k.c.g.(.oXoX.X.XH.K.H.I.oXG.G.{.z.x.k.1.l.a.5 ",
"~.# L g ).Z. X{.1.).b.c.V.C.F.C.a.k.b.A.J.J.N.C.A.g._.G.{._.1.{.b.a.C.C.K.a.a.g.Z.J.J.F.N.F.Z.).Z.Z.{.).).b.c.V.C.F.C.a.k.b.A.8.s ",
"T.7 a.p.a.x.l.1.1.1.1.1.f.f.).l.a.a.a.a.a.V.F.a.a.a.x.k.g.1.1.1.1.1.f.1.).x.a.a.a.a.a.C.C.a.a.a.x.l.f.1.1.1.1.f.f.).f.a.a.a.p.c.- ",
"E.* 6.a.a.a.l.l.a.k.1.l.c.N.K.F.a.a.a.a.S.K.F.K.S.a.l.l.g.z.a.f.f.k.N.N.K.V.a.a.a.V.F.K.F.K.V.z.l.g.g.x.k.1.f.b.c.K.K.a.a.a.: K t ",
"  6.a.a.x.a.a.a.a.a.a.x.Z.Z._.b.J.C.N.z.x.a.a.a.c.a.a.a.a.a.a.a.x.Z.Z.Z.).G.F.N.b.z.x.c.a.c.a.a.a.a.a.a.a.a.x.Z.Z._. XJ.C.i.D O.* ",
"Y.# C O.f.f.l.x.a.a.l.l.a.z.f.1.1.1.1.1.1.1.f.g.z.a.a.a.a.a.a.z.l.k.a.l.1.1.1.1.1.1.1.1.f.l.x.a.a.a.a.a.a.k.g.x.z.f.1.1.1.1...t.4 ",
"%X+ 6.a.a.x./.;.g./.%./.a.F.C.g.a.z.x.k.x.c.a.a.a.a.a.g.&.-.z.%.&.x.V.K.v.x.a.k.z.z.x.a.a.a.a.a.x./.;././.%./.a.F.S.f.a.x.x.l.@ b ",
"R.d * 5 q > q.H.`.|.K.G.A.K.K.F.a.V.F.K.K.K.x./.;.<.%.;.K.G.&.G.K.A.K.K.K.V.a.C.K.K.K.B.z.&.%.<.-.}.H.}.}.K.H.A.K.K.K.a.a.V.9.6 O ",
"  I K.8.Q K.K.K.H.K.K.F.K.G.G.K.F.V.c.c.V.f.I.|.H.|.G.G.H.H.K.K.F.F.K.A.K.K.C.c.c.c.c./.I..XXX}.H.G.K.H.K.K.F.K.G.G.K.F.V.c.V.F.8 ",
"  n.V.F.K.x.Z.).1.z.V.x.g.1.g.S.C.a.a.S.K.G.K.S.V.K.C.v.b.1.).V.a.k.).1.B.F.V.a.V.F.K.H.K.V.S.K.x.b._.1.z.V.x.g.1.1.F.S.c.a.i.q X ",
"E.o { x.b.1.1.1.1.1.f.1.f.z.f.l.a.a.S.V.a.S.a.a.x.c.k.1.1.1.1.1.f.1.l.g.f.x.a.V.S.a.V.C.a.a.x.x.f.1.1.1.1.g.1.1.k.f.l.a.a.C.c.a.@ ",
"b H x.l.f.f.a.f.k.f.1.l.l.a.a.a.x.a.k.l.a.a.a.a.z.g.1.x.z.g.l.1.f.g.z.a.a.a.a.x.g.k.a.a.a.x.l.f.f.a.l.k.f.1.g.l.a.a.a.x.a.z.g.t.a ",
"> a.a.a.F.F.V.a.x.x.k.a.a.a.a.l.1.f.1.1.k.x.c.C.K.C.S.S.x.a.x.k.x.a.x.a.x.f.1.f.1.f.z.x.c.F.F.C.S.N.c.x.x.k.x.a.a.a.z.1.f.1.1.M Y ",
"l L L J J.b.f.g.1.1.1.1.1.1.<.,.1.1.1.,.1.f.x.F.K.K.A.l.f.f.1.1.1.f.1.).,.1.1.1.,.,.1.l.N.F.K.K.b.g.g.1.1.1.1.1.1./.,.,.o.f.x.z.d.",
"W < i 8 a.a.x.k.1.1.1.,.%.%.-.@././.(.%.<.V.F.K.K.F.a.a.z.g.1.1.1.2.#.;.=.<./.(.I.%.g.C.F.K.K.V.a.x.k.1.1.1.,.%.%.;.*.5 > h N 6.e ",
"  o.,.M g.x.a.a.k.f.).%.`.G.oX|.K.XXH.G.}.F.c.V.F.J.S.a.a.z.k.1.<.;..XK.|.XXH.XXK.XXXXV.a.C.K.F.V.a.a.k.f.).%.`.G.H.`.K.K.8.H.O t ",
"X h [ V.k.k.a.a.a.C.S.G.K.K.F.K.F.K.F.K.K.K.K.c.V.C.a.a.a.a.a.S.K.A.K.F.K.K.F.K.F.K.K.K.S.V.C.V.a.a.a.a.C.S.A.K.K.F.K.F.K.F.F.5.a ",
"b : m.F.V.c.V.a.a.a.a.a.V.V.c.C.a.V.a.S.K.F.K.F.K.C.c.c.c.a.a.a.a.a.S.a.V.a.a.V.c.K.K.F.F.F.F.V.c.V.a.a.a.a.a.V.V.a.C.a.a.a.a.n.- ",
"X ) 0 k.f.1.1.g.k.V.S.C.c.c.a.z.x.a.a.a.a.a.a.a.x.l.1.1.g.g.x.V.F.V.c.x.x.k.a.a.a.a.a.a.a.a.z.f.1.1.l.l.c.C.S.V.c.a.z.z.a.a.a.: c ",
"~.T f 1.k.k.1.f.1.{.A.G.Z.g.f.l.f.x.x.g.x.z.a.l.1.f.k.g.1.f._.b.K.Z.b.f.g.g.l.a.l.k.a.z.x.g.1.l.k.1.f.1.{.A.G.Z.g.f.l.f.x.a.z.p.# ",
"&Xn o L p.a.z.a.f./.z.g.g.l.k.l.f.x.f.f.O.1.k.x.x.a.a.a.x.x./.f.c.f.l.l.k.g.l.x.1.f.1.f.z.x.x.a.a.z.x.g./.z.g.g.l.z.k.f.z.f.f.} l ",
"/ & r.Q U h.].F.G.'.-.`.`./.1.f.f.f.1.x.a.x.a.z.(.].&.`.j.K..X:.%.}.&._.1.1.f.1.l.a.x.a.a.g.(.`.`.&.S.K.}.%.'.`.(.1.f.f.f.1.x.h < ",
"U.k C.F.Z.K.K.K.{.Z..XS.S.H.A.V.a.k.1.g.b.N.Z.}.G.A.A.K.H.A.{.G..XC.G.H.Z.x.a.1.1.b.b.C.}.XXH.Z.H.H.K.Z.Z.}.B.S.H.A.V.a.x.1.1.( a ",
"&Xl { x.l.v.).).1.1.).l.z.x.b.x.a.z.b.V.C.C.V.c.V.z.l.v.).1.1.).g.k.c.v.b.a.a.z.N.C.C.V.c.V.x.l.v._.).1.1.).l.z.x.b.v.a.z.x.{ o n ",
"OXs J a.k.k.f.1.k.f.1.1.l.l.b.b.a.a.a.a.V.F.K.S.V.a.k.g.f.f.k.1.1.1.l.g.Z.c.a.a.a.V.C.K.J.C.a.z.k.f.1.g.f.1.1.g.l.b.b.a.a.a.{ e # ",
"T.6 F.V.x.x.x.x.a.x.k.c.F.J.A.G.C.V.a.a.V.C.V.C.C.a.x.x.x.a.a.k.x.C.K.F.Z.F.C.a.a.a.V.C.V.F.V.a.x.x.x.a.x.k.x.F.F.A.G.C.c.a.p.{ j ",
"OXz w l.g.l.a.a.a.a.k.f.z.l.1.).{.j.j.).f.l.k.k.z.a.a.a.a.a.a.z.g.f.z.).1.{.{.j.g.f.g.l.k.k.x.a.a.a.a.a.a.k.).v.l.1.).{.j.j.| . !.",
"*X@X; Z.z.x.x.x.a.x.z.x.a.c.z.1.k.f.1.1.1.g.k.x.a.a.a.a.x.x.a.x.z.a.a.x.g.f.k.1.1.1.1.k.k.x.a.a.a.x.x.x.x.z.x.a.c.x.1.k.1.g.x.` ^ ",
"OX; M.K.H.].I.`.%.&.}.(.N.K.K.v.a.a.a.c.C.F.a.x.x.x.x.%.[.:.$.`.[.g.F.K.B.k.a.a.c.c.F.V.a.x.x.x.g.I.`.%.%.[.(.b.K.K.v.a.f.O.] K ! ",
"T.k H.D.K.C.K.K.G.G.K.K.H.K.K.K.V.V.K.K.K.N.g.%.I.=.`.>.H.K.XXK.K.H.K.K.K.F.a.F.K.K.F.j.<.I.&.;.'.[.K.H.G.K.K.H.K.K.K.l.2.1...$ #X",
"OX3 6 2 p.a.V.V.Z.K.S.V.F.b.Z.K.K.C.a.a.C.`.XXoXK.G.K.K.K. XA.K.V.V.G.).K.K.F.a.a.a.Z.(.oXG.K.H.K.K.A.{.J.S.c.F.b.{.K.).=.#.,.i ^.",
"*X$X# u.x.k.p.d.1.s.c.l.1.1.).c.a.a.V.F.F.K.F.V.a.K.x.1.).1.f.p.x.1.,.1.l.c.a.S.K.B.J.K.S.a.` 7.s.1.1.,.z.c.l.1.1.Z v.k.d.,.< b *X",
"*XOX6 a.u.C ` < ,.M 1.Z s.6.s.} { a.6.L p.c.a.u.a., X.k.f.1.1.M ( D w x.s.x.] C.5.t.a.a.u.S o.1 N k.S Z 1.Z o.X.p.6 ` t.` a.t.! %X",
"%X%Xb 6 4 R ! R.Y Z 1.i * # B t.o ` ] o 6 a.p.6 ` * a.q ..N a.C d c K ` z 6 & 8 @ p.) a.t.$ i . q ] a - i $ y.L o + W p 5 u., R.%X",
"%X*X*XOXOX*X*X*X$Xp o t +XQ.T = Q.^ W Q.E 6 j L.E + - c - t - + +X%Xm Y $XW.R.b ~ # t 4 > Y.Q.W.W T U.#X#Xn . . T.*X&X&X!.W E.*X%X"
};
