/* XPM */
static const char *_[] = {
/* columns rows colors chars-per-pixel */
"65 65 251 2 ",
"   c #151B2D",
".  c #14162B",
"X  c #151D32",
"o  c #181D33",
"O  c #141C3C",
"+  c #0D102A",
"@  c #152333",
"#  c #192334",
"$  c #1B2B34",
"%  c #1B253A",
"&  c #1B2B3B",
"*  c #16263A",
"=  c #1B333C",
"-  c #1B3A3D",
";  c #1C3736",
":  c #162C31",
">  c #252938",
",  c #243839",
"<  c #32313B",
"1  c #02051C",
"2  c #28473B",
"3  c #2E573C",
"4  c #32593D",
"5  c #304C38",
"6  c #214F3F",
"7  c #1E2C42",
"8  c #1B2846",
"9  c #1C3443",
"0  c #1C3A45",
"q  c #1D3C4A",
"w  c #1C344B",
"e  c #0C3546",
"r  c #212F45",
"t  c #213345",
"y  c #22354B",
"u  c #233B4D",
"i  c #253944",
"p  c #373945",
"a  c #243C52",
"s  c #253952",
"d  c #322D41",
"f  c #181F40",
"g  c #463A46",
"h  c #1E4443",
"j  c #1E444C",
"k  c #1C4A48",
"l  c #1D4A52",
"z  c #1C5453",
"x  c #214C4C",
"c  c #244747",
"v  c #37434A",
"b  c #22534B",
"n  c #285947",
"m  c #325C43",
"M  c #244353",
"N  c #224A54",
"B  c #29445B",
"V  c #27495A",
"C  c #215355",
"Z  c #23545C",
"A  c #235B59",
"S  c #385058",
"D  c #1D7158",
"F  c #29654D",
"G  c #366845",
"H  c #3A784A",
"J  c #266857",
"K  c #297659",
"L  c #337A55",
"P  c #316D51",
"I  c #1C5C65",
"U  c #2A4D61",
"Y  c #264B61",
"T  c #2A5364",
"R  c #245E63",
"E  c #295B65",
"W  c #295B68",
"Q  c #375C66",
"!  c #1D6368",
"~  c #246364",
"^  c #266A63",
"/  c #29636A",
"(  c #266C6C",
")  c #296B6D",
"_  c #276669",
"`  c #3B6367",
"'  c #26726D",
"]  c #28746D",
"[  c #297C6D",
"{  c #287764",
"}  c #266D71",
"|  c #287472",
" . c #287773",
".. c #356F79",
"X. c #444B54",
"o. c #45555B",
"O. c #585558",
"+. c #4F4C4C",
"@. c #6B5254",
"#. c #417946",
"$. c #4E7053",
"%. c #73675C",
"&. c #5A5C63",
"*. c #435C62",
"=. c #456867",
"-. c #4C7574",
";. c #537A79",
":. c #4A6E6D",
">. c #766C65",
",. c #797677",
"<. c #6E6D6C",
"1. c #685F63",
"2. c #452B37",
"3. c #857566",
"4. c #867872",
"5. c #9D555C",
"6. c #D4625F",
"7. c #388657",
"8. c #3B945D",
"9. c #2F835B",
"0. c #2B846C",
"q. c #2C8C6C",
"w. c #2C8764",
"e. c #2D946B",
"r. c #2E986B",
"t. c #359867",
"y. c #2B8472",
"u. c #2D8B73",
"i. c #30926A",
"p. c #3CA266",
"a. c #35A775",
"s. c #45874B",
"d. c #4D944D",
"f. c #489955",
"g. c #4C9652",
"h. c #4CA75B",
"j. c #53AA57",
"k. c #54B35C",
"l. c #5AB85A",
"z. c #51A857",
"x. c #558877",
"c. c #43A563",
"v. c #4AAD62",
"b. c #44AB64",
"n. c #4BB364",
"m. c #52B862",
"M. c #60BE5A",
"N. c #5EC25E",
"B. c #5AC462",
"V. c #62CC60",
"C. c #9A8978",
"Z. c #8D8377",
"A. c #A9977B",
"S. c #A68F79",
"D. c #B0A37C",
"F. c #397C81",
"G. c #487781",
"H. c #6C7F80",
"J. c #3C8386",
"K. c #3D989E",
"L. c #3D8D99",
"P. c #3D9DA1",
"I. c #3DA4A4",
"U. c #46959D",
"Y. c #4E888F",
"T. c #648687",
"R. c #789A96",
"E. c #6C9492",
"W. c #459BA1",
"Q. c #5899A4",
"!. c #42A5A5",
"~. c #43A9A7",
"^. c #47ABA9",
"/. c #49ACAA",
"(. c #48A6A8",
"). c #54ACAC",
"_. c #5AA9AB",
"`. c #4AB1AE",
"'. c #54B2AE",
"]. c #5BB1AF",
"[. c #4BB5B1",
"{. c #5BB6B1",
"}. c #57B7B3",
"|. c #65AAAC",
" X c #6CABB2",
".X c #68B7B4",
"XX c #78B9B6",
"oX c #72AEAE",
"OX c #78A0A0",
"+X c #69C4BB",
"@X c #76C3BB",
"#X c #7CC8C1",
"$X c #8C8885",
"%X c #938C88",
"&X c #9B948D",
"*X c #97948C",
"=X c #9C9891",
"-X c #829D99",
";X c #A69B93",
":X c #AC9986",
">X c #87A59D",
",X c #9BB09A",
"<X c #B8A585",
"1X c #AAA49A",
"2X c #B5A89D",
"3X c #AFA180",
"4X c #88AAA3",
"5X c #95B4AB",
"6X c #99B8AD",
"7X c #85BCB9",
"8X c #99BBB1",
"9X c #8EB2AA",
"0X c #B7ACA2",
"qX c #BDB3A7",
"wX c #A5BAAF",
"eX c #C7AB8B",
"rX c #CAB58C",
"tX c #CEB896",
"yX c #D6BA94",
"uX c #CDB191",
"iX c #C6B8A7",
"pX c #C8BCAC",
"aX c #85C4BD",
"sX c #96C2BC",
"dX c #A9C9B9",
"fX c #D8C395",
"gX c #CBC3B3",
"hX c #D8CAB7",
"jX c #D8C7AE",
"kX c #E2CFB4",
"lX c #D8CFA5",
"zX c #83BDC3",
"xX c #89CBC3",
"cX c #96CCC3",
"vX c #8AD2C6",
"bX c #99D5C9",
"nX c #A7DACC",
"mX c #AED7C8",
"MX c #B8E7D5",
"NX c #AFE7D5",
"BX c #94E0D0",
"VX c #E8DAC5",
"CX c #C5ECD8",
"ZX c #C9F3DD",
"AX c #CFF0D4",
"SX c #F3E5CA",
"DX c #EFE6CE",
"FX c #CBF8E2",
"GX c #D3FDE5",
"HX c #D8FFE8",
"JX c #DFCFC1",
/* pixels */
"^.^.^.^.^.^.^.^.!.~.^.~.I.I.K.K.!.^.~.~.I.P.P.K.P.@X.X`.XXXX/./././.^.~.^.~.^./././././././.^.~.^.^.^.^.^.~.~.^.^.^.^.^.^.^.^.^.^.",
"^.^.^.^.^.^.^./..X.X`..XXX@X7X7X@X/./..XvXaX7X7XaX+XI.I.^.{.~.!.^.~.}..X_._./.^.!.I.W.U.U.U.)..X{.^.^.^./.'.).)././.^.^.^.^.^.^.^.",
"^.^.^.^.^.^.^.!..X'.~.).vXMXMXvX{.{..X|.cX@XvXGXGXMXcX7XoX|..X{./.)..X|. X7X(.^.]._.Q.Q.Q.Q.|.oX).I.!.I.^..X_.|..XI.^.^.^.^.^.^.^.",
"^.^.^.^.^.^.^.{.{.].|._.|.XX@X.X].aX7XaXbX7XcXCXCXCXZXZXZXCXCXMXMXMXMXmXMXMXcXnXMXxXbXnXnXnXMXNXXX.X.X].XXaX7XbXbX@X).^./.^.^.^.^.",
"^.^.^.^.^./.bXCXZXGXGXGXGXZXZXGXHXHXGXHXHXHXGXGXGXGXGXGXGXGXGXGXGXGXGXGXHXGXHXGXvXvXZXFXFXFXFXFXFXFXHXHXGXGXHXGXZXFXbX~.^.^.^.^.^.",
"^.^.^./.~.XXZXFXZX5X9XdXwXdXmX6X4X9X6X6X8X6X9X6X5X6X9X4X4X4X4X6X6X8X8X5X8X6X5X4XF.T.G.G.G.G.G.G.G.E.5X4X4X9X4X6XZXGXMX/././.^.^.^.",
"^.^./.~.XXcXGXmXH.*XZ.&.X.&.1X1X=X,.  > d p $ # X > *X;X*X*X*Xp . d d , > > X <.1X*X$X$X$X$X*X%X*X1X%X$X$X$X$X$XT.mXMX^.@X].~.^.^.",
"^.^./.!.|.xXCX:.pXVX,.OX7X` =.,.hX$Xl E 5 m l., y c ,.%X;XiX;XS I m 5 z.H f c O.;X&XVXSXDXVXqXiXqXpXVXSXhXJXJXVXqX<.mX/.'.).^.^.^.",
"^.^./.~.|.xX4X,.VXO.Q.bXXX7X7X* * o 0 J l.k.f., d.k.: - @ # X $ C f.l.k.m G M.n : - > &.1.<.R.1.O.1.,.,.>.C.&X;XVX,.R.{.^./.^.^.^.",
"^.^.^.~..X@XT.2X4.;.bXzXsXAX>X  y h z.3 K v.z.j.m.v.t.a.h 7 w 7.#.b c.j.g.k.v.t.i.b * > % t +.c i C.rXS.<X:XS.3.iX1XT.)..X_.~.^.^.",
"^.^.^.^.!..XE.0X<.Q.xXzXmX,Xi & Z J 8.5 H 7.b.v.t.c.g.h @ C l t.m G L c.v.c.t.k.n 8 o 0 M y   R l < A.uXuXeXyXA.qX0XR.).@X].~.^.^.",
"^.^.^./.I.@X>X1X,.=.4XdXhXS . 9 ( ~ k n s.t.r.e.q.b.n o # Z ' C b H t.e.e.q.p.G X a 7 ~ A L j.b f.3 m O.:XuXrXeXiX;XR.}.^./.^.^.^.",
"^.^.^./.K. X-X2X4.S T.4X>XS a y W ( h w.J { K ] ' ^ q t & M | j K K ' e.q.( ' - # V U ( ~ P 3 b n.j.l.4 > O.eXeX2X;XR.}.I.^.^.^.^.",
"/.!.|.@XU.nX>X1X;Xv ;.` 0 > # U ) _ ^ 0. .q j & * G 4 % 8 q _ ~ [  .( 0.[ { N 9 y W ) _ h b G H 8.m.F > w i <XuXiX2X>XbX'.^.^.^.^.",
"^.W.mXNX|.MX>X;XjX+.1 # ( 9 o V E U [ A q & ! H #.k.H # #.2 o & J (  .q.] ^ = u V V T ~ J { P t.t.k.g.z.s.p uXeXqXhX6XCXcX!./.^.^.",
"^.U.mXnX|.MX>X;XiXo.@ = N l 9 B B E a % 8 2 m 7.B.h.G g.V.7.J J % M A  .E y u   # V W [ u.( ] r.r.c.b.n.h.$ O.A.qX;X>XGXsXU./.^.^.",
"!.U.cX.XQ.MX4XqXZ.O M w.^ j t % s U # 9 w 8.s.- L k.z.G P 2 J K t 7   Z 9 & # 9 Z * s Y '  .0.q.0.0.r.v.t.w.- %.gX&XR.bX7XW./.^.^.",
"W.Y.cX'.Q.MXwX;Xv J F k b b l = & #   R ~ J c s.f.i.b + . R 9 o & X   X & s # c ^ 3 $ c x J w.[ ] ] t.#.P w.j p iX;X>XcXXX!./.^.^.",
"W.Y.cX{.Q.XXwX2Xp D t.$ J 0.^ V t y r M  .l b ; c # y i - R C a B #   & ~ 0 P 4 n l.g.l., O q [ 0.] [ J $ b a i C.&X>XnXoX!./.^.^.",
"!.U.cX}.L.Q.dX$X< P v.g.9. .( E M t s a ~ j # h X x x J e.R ' W y u u @ R C , t = 2 H n $ V % W | ( y.K b r.= 1 &.;X>X#X~.^.^.^.^.",
"^.W.cX}.L. XE.O H V.t.p.i.] [ ' V # 7 9 t ; c i.@ K e.- x ~ ) B B B & 0 ~ &   B r % 7 8 2 l., 8 V W 0.^ ( C 0 # ;X;XT.+X.X^.^.^.^.",
"^.(.NXvXP..X,.* r d.n.t.[ ' q./ V =   8 P j.c & 3 9.f., J w.] _ ) M & N j & u a E T a # o 7.P - % ) / W ' ~ ! , pX1X} +XcX!.^.^.^.",
"^.^.bXbXK..X-X; 4 m l.c.e.q.[ [ Z = d.2 G f.O V l.n.c.f.[  .) W ( T s y $ t T U T | T A l . J i.& j M a E 9 < >.kX1X| +XaXW./.^.^.",
"/.I.{.vXP..X-X4 l.h.j.t.r.q.q.0.j # j.s.d.f.* # s.n.e.i.[ ( _ B B B % # # y B / / R ( ( q s - h a r t X r 8 %.yXkX1X..BXsXW./.^.^.",
"^.^./.}.I..X5Xp m N.8.7.8.( ( j * #.k.k.m.F s.s.G l.p.' ] q.' W U a % u V W B ] 0.x k K L # $ w.- . # & = * v <XVX1X..MXsXK./.^.^.",
"^.^.^.^.!.{.R.g 3 v.k #.G 0.~ q _ L p.L p.J 4 k.k.v.r.r.y.{ a V q   @ B T / / ' [ w.b m z.c q x - X y ( A 8 7 3.hX0X..MXcXP.^.^.^.",
"^.^.^./.^.^.-.$ ! C #.m b K A = i G 2 s.p.h 5 N.h.P b F b = F & s.H + % V W ' ] | A s.G h K ~ & ( j Z } J P , 9 S $XY.bX+X~.^.^.^.",
"^.^.^.^.^./.G.p j = f.L & X # % - n.m G n 0 P 7.b $ # % 9 x j.H H p.H s.0 ( 0.q.[ e.8.P n.g.$ q q q q j J z.G I N <.Y.[.^.^.^.^.^.",
"^.^.^.^.^.[.Y.0X&X  + @ ( q   s u J C J b q R m 2 # y M j Z L 7.k w.n.8.$ y ] [ i.e.i.v.m.#.& B % b { K 3 2 P 7.< $XJ.^.^.^.^.^.^.",
"^.^.^.^.^.[.F.pXpX& # $ C ( C X A ' R h { b   3 c s t 7 7 N q.0.0.y.[ l N u [ 0.' e.v.z.7.l.2 r 9 A u.J s.P 8.l.2 &.Y.`.^.^.^.^.^.",
"^.^.^.^.^.[.G.gX%XO a 9.^ } W o & Z ( _ | C 7 7 X M T 7 r y M | ( R W V 9 N | [ ] q.v.z., 3 $ @ N ( ( [ r.8.k.h.l.2 ..[.^.^.^.^.^.",
"^.^.^.^.^.`.Y.1XX.b b b b J ^ % 7 s W W V & & 9 j A ' Z j M B V & 7 B 9 7 Z ' ' t.c.t.N.H 8 # 9 R 0.0.q.e.p.k.G G $ ..[.^.^.^.^.^.",
"^.^.^.^.^.`.F.;Xv D t.# F q.] u y 9 V T t & y = ( Z _ ' [ R A Z u 0 r Z ( ' 0.u.F s.c.f.G 7 # V _ ] [ 0.0.t.l.d., r N ^./.^.^.^.^.",
"^.^.^.^.^.`.F.4.v F v.d.{  .} T y # 7 y 9 0 Z & . J ^ F u.} [ q.~ & t T U W { F $ F r.- . w y M W T q.[ ' r.e.B.j.* W `.^.^.^.^.^.",
"^.^.^.^.^.[...o H V.t.p.i.]  .~ a X # & ~ ( C @ # J b = K 0.' y.C % U y B ) ( ^ K b w.- P b o C _ / | ' 0.c.v.t.m < J.`.^.^.^.^.^.",
"~.)./.^.^.[.E 8 i z.v.t.[  .J 0 % 7 % . @ x ( j y c J G d.t.] q.K % & 7 U A ~ C J a & # d.2 X 7 y M _ ' y.n H r.k p J.`.^.^.^.^.^.",
"'.nXvX^.^.[...$ 2 m l.p.q.J & s 7 s u . o { J n 0 h r.t.b.e.p.e.r.h ; c y # ( j + 7 i 2 $ c 9 G 5 + N y.w.h * w.F > J.`.^.^.^.^.^.",
"|.ZXMX/.^./.W 4 N.f.j.p.b q = N V a B 7 s c - - K = : H B.m.l.v.7.f.n h = M 0 & . h f.J 0 z.G s.8.G G A J J 9.u 7 +.J.`.^.^.^.^.^.",
"U.cXMX/.^.^...p G N.f.F - ~ ~ ^ T U ) N % w.e.s.h.0.w 3 g.m H m.L G 2 A ( ~ y y c p.l.n Z L s.k i.n.L % ~ J n * &.4.F.[.^.^.^.^.^.",
"K.7XbX^.^.(.-.p 3 n.b + . - A ' / ( ) T # b K b.r.t.{ 7 8 , j.k.m.h g.8.l ~ # 8 x k.#.# M q.w.0.y.{ l a l ( & 1 1.;X..[.^.^.^.^.^.",
"W.7X.XI././.` > R A G c % K q.x w. .U B V X G B.n.l.t.b * 3 s.4 g.J m - a = : 2 9.n.#.% s M ' _ R W V = # z c %.qX;XE.+X!./.^.^.^.",
"!.xX@XI./.~./ > l = s.n y x - n y.( ( E / N c s.G g.m.7.g.2 - . & ( * % 7 $ - G v.k.g.7 7 M V & & u # o % . 3.yXkX;XR.@XI./.^.^.^.",
"^..X{.~.^.vXT.&XC.> q o b r.n m 0.] 0.] T u 7 8 2 h.n.L m c k # $ & M ~ l ' h J e.c , % % s Z N y q u N V t v 4.jX1XR. X!./.^.^.^.",
"^.^.^.!..XHX4XgXiXd w X h K c.j.i.' [ 0.' ^ 9 # g.d.k.8.2 h.J N 0 y y A Z { F b K #   u U W W W W ] / ) U s e +.hX2XOX XL.^.^.^.^.",
"^.^.^..XcXGX4X0XjX3.< 2.+ H n.e.r.0.0.0.q.| E & & & 4 J P H q A 9 .   Z Z . y u . t u ( W ) ' (  .0.C ( / 0 . %.jX&XR. XU.'.^.^.^.",
"^.@X_.|.aXGX4X0XiX@.6.6.g H l.k.h.e.t.y.' ' Z 7 % 7 X A 9 + s # # & 0 0 9 X X t s U U E U / q.[ ( 0.n l ) ~ @ S.kX$X-X XQ.].~.^.^.",
"W.aXaX].|.GX4X;X,.5.6.6.5.< $ #.k.p.e.{ ( y.J 7 V V a = M N 9 x ' q.] ' { &   7 W W B W ] [ 0.0.] F n J J u 8 3.hX&XR. XL./.^.^.^.",
"K.sXMX@X.XGX>X$X1.5.6.6.5.+.H h.k.7.g.G { { ^ & r A _ ( 0.| ' q.y.0.' y.x % V B / ' T _ [ 0.0.e.q.h.4 H f.% 7 3.jX1X>X X).'.~.^.^.",
"I.xXMX/.).GX>X;X&Xp >.@.5.+.H d.l.K 2 n b j } r 0 ~ ( J q. .[ ( 0.e.[ A h % 9 u B / y.( ] ' [ r.t.7.F n m # 4.eXiXgX5X_.XX].~.^.^.",
"^.'.xX/.~.FX>X&X;X4.=X@.6.5.d , f.F H 7.l ( ) 9 ~ C ^ A b K t.0.q.e.t.s.2 * y V W / w.u.0.e.r.c.k.k.m.f.I l 4.yXiX2XT./.{.).^.^.^.",
"^.^.^.^./.FX4X&XjXD.5.@.&.>.<X+.z C H P ~ ) B y # o K F @ d.p.t.v.b.7.G 3 m u u ~  .x b m z.r.k.d.f.z.3 = v S.rXiX&XE.}.I.^./.^.^.",
"^./.^.~.!.NX4X%XiXeX3.1.:X<XyX%.e i o w l 0 7 a + . y b a.c.p.v.k.z.v.K m G . 9 ( C q.- n v.v.l., g.s.g S.eXuXrXjX&XR.}.~./.^.^.^.",
"/.~.'.@XP.nX9X=XiXrXrXrXtXeXrXrXC.D.O.* > > @ u >.>.8 h D k l.g.2 f.l.l.^ j > j z , J b a.K H s.7 ; +.eXyXuXyXA.iX;XR.}.!./.^.^.^.",
"/.~.).xXK.nX4X%XpXtXrXrXeXyXfXfXfXyXeXS.eXeXC.S.fXfXA.O.g +.m M $ j.3 $ j e 3.Z.< 1 O w k ; g p 8 @.yXuXeXrXC.>.pX&XR.@X^.^.^.^.^.",
"^.^./.{.K.nX-X,.VXuXtXtXtXD.A.A.S.S.A.<XA.A.<X:XA.A.<XA.A.A.< O v o.>.Z.>.1.<XfX:Xv <.O.O.>.A.Z.+.C.A.3XfXtX:X<XVX,.E.vX.X~./.^.^.",
"^.^././.P.nX>X# pXhXhXVXDXhXhXgXiX0X0XqXqX0X0XqXpXgXiXiXiXpXpX;XkXVXSXSXSXSXSXVXVXVXkXhXSXVXpXgXhXhXgXVXDXSXVXVXpX> -X#X_.~./.^.^.",
"^.~./.aXI.NXwX% o.%X$X$X$X%X1XhXVXDXgX$X*X%X%X%X&X;X$X4.,.4.=X1X=X*X1XqX*X$X*X*X%X$X$X$X$X$X*X=X1X1X=X%X$X$X$X$Xo.& 8XbX|.!./.^.^.",
"^.^.^.{.!.vXFX=.X i v S S Q ` -.x.E.x.` =.` ` ` Q S =.` :.:.:.:.:.:.:.x.;.` =.=.` ` ` ` :.` =.=.x.-.` Q S S v i X =.ZXaX.X^./.^.^.",
"^.^.^.^.I.@XHXMX=.p X.X.o.o.*.:.:.=.T.T.x.=.*.Q :.Y.;.-.-.-.=.=.=.-.;.-.-.;.x.E.-.Q S o.-.;.T.-.:.:.*.o.o.X.X.p &.CXFX_.I./.^.^.^.",
"^.^.^./.~.'.nXMXMXOXE.R.Y.R.4X4X4X9XsX8X8X6X6X5XsXmXdX6X8X6X5X5X5X6X8X6XdX9XU.K.J.F.4X8X8X8XcX8X6X9X4X4X4X4XOX9XNXbX.X^./.^.^.^.^.",
"^.^.^.^.^.^.!.XXXX.X#X}./._._.Q.Q.Q.Q.Q.nXHXGXGXHXGXHXHXHXHXHXHXHXHXHXHXHXGXNX@X#X+X}.xXnXnXZXHXbX[.}.'././.'.[.^.I.~.^.^.^.^.^.^.",
"^.^.^.^.^.^.^.)._._.{.^.^.^.I.(.Q.Q.W..XaXnXMXnXcXbXxXaXxXaXXXXX7XaX@X@XXXXXXXXXaX.XI.).XXXXoXXX`.!.!.`.@X.X^..X.X^./.^.^.^.^.^.^.",
"^.^.^.^.^.^.^.~.~.~.~.^.^.^.^.^.^././.^.~.(.XX|.|..XI.I.I.I./.^.I.!./.~.P.P.P.P.I.~./.^.!.P.P.I.^.^.^./._._./.).'.^.^.^.^.^.^.^.^.",
"^.^.^.^.^.^.^.^./././.^.^.^.^.^.^.^.^.^.^./._._.].'././././.@X@X}.].aX'.^.`./.`././.^./././.`./.^.^.^.^.~.~.^.~.~.^.^.^.^.^.^.^.^.",
"^.^.^.^.^.^.^.^.^.^.^.^.^.^.^.^.^.^.^.^.^.^.~.^.~.~.^.^.^.^.!.~.^.^.~.^.^.^.^.^.^.^.^.^.^.^.^.^.^.^.^.^././.^././.^.^.^.^.^.^.^.^."
};
