/* XPM */
static const char *e[] = {
/* columns rows colors chars-per-pixel */
"65 65 243 2 ",
"   c #0A0E2A",
".  c #0B1427",
"X  c #141C2C",
"o  c #171E2E",
"O  c #191D31",
"+  c #1B242E",
"@  c #1D2231",
"#  c #1E2934",
"$  c #232634",
"%  c #252A36",
"&  c #2A2B36",
"*  c #2C2C3A",
"=  c #312E3B",
"-  c #2B3735",
";  c #2D313E",
":  c #33343C",
">  c #353938",
",  c #3A3C3C",
"<  c #423B3E",
"1  c #3D4236",
"2  c #394637",
"3  c #3E5033",
"4  c #45483B",
"5  c #48543A",
"6  c #55573D",
"7  c #5A6F3C",
"8  c #62763E",
"9  c #303241",
"0  c #353743",
"q  c #3B3C45",
"w  c #443D44",
"e  c #543E44",
"r  c #3E4348",
"t  c #3F4350",
"y  c #444543",
"u  c #494748",
"i  c #54464E",
"p  c #584A4B",
"a  c #4B5444",
"s  c #5B5B45",
"d  c #575749",
"f  c #4A4B54",
"g  c #554C51",
"h  c #4E5259",
"j  c #595756",
"k  c #654C4B",
"l  c #68594B",
"z  c #6D594F",
"x  c #675557",
"c  c #785A56",
"v  c #4D6B4C",
"b  c #586647",
"n  c #5F605E",
"m  c #686748",
"M  c #74694C",
"N  c #687743",
"B  c #79754B",
"V  c #696556",
"C  c #776554",
"Z  c #647F52",
"A  c #757354",
"S  c #565A66",
"D  c #5A5D65",
"F  c #5E6266",
"G  c #5D606A",
"H  c #5B7A65",
"J  c #636364",
"K  c #686767",
"L  c #6B6B6C",
"P  c #786C66",
"I  c #787466",
"U  c #696B73",
"Y  c #7B7B74",
"T  c #70737D",
"R  c #787879",
"E  c #855D57",
"W  c #835C59",
"Q  c #827A4C",
"!  c #866659",
"~  c #93635C",
"^  c #98695E",
"/  c #867756",
"(  c #957B5C",
")  c #9A6860",
"_  c #877967",
"`  c #8E766D",
"'  c #997762",
"]  c #837D7B",
"[  c #A26B62",
"{  c #A97865",
"}  c #B17D68",
"|  c #748D3F",
" . c #5F8657",
".. c #6B8648",
"X. c #758746",
"o. c #7A9545",
"O. c #6A8E5A",
"+. c #769957",
"@. c #7CAA5E",
"#. c #79AC63",
"$. c #85834B",
"%. c #8B854C",
"&. c #8C8A4C",
"*. c #849D49",
"=. c #94954D",
"-. c #898558",
";. c #958957",
":. c #8C9554",
">. c #9B9555",
",. c #A78A5C",
"<. c #A69B58",
"1. c #87A349",
"2. c #98B64D",
"3. c #85AA5A",
"4. c #94AA50",
"5. c #8CB257",
"6. c #98B556",
"7. c #A1B54E",
"8. c #ACA557",
"9. c #B4A65C",
"0. c #B6AD5B",
"q. c #A9B856",
"w. c #B8B65B",
"e. c #8A8766",
"r. c #968964",
"t. c #9B936D",
"y. c #888679",
"u. c #988876",
"i. c #A88764",
"p. c #B4826A",
"a. c #B88A6A",
"s. c #A99963",
"d. c #B79567",
"f. c #BD936E",
"g. c #A58A78",
"h. c #A9987B",
"j. c #BA9B74",
"k. c #88A863",
"l. c #94A865",
"z. c #AAA866",
"x. c #B1AB6E",
"c. c #BAB567",
"v. c #C5BB5E",
"b. c #C5BD5D",
"n. c #C39C6A",
"m. c #C89B76",
"M. c #C6AA69",
"N. c #CBB767",
"B. c #D6B96D",
"V. c #CBA87B",
"C. c #D5AD75",
"Z. c #C6B172",
"A. c #D8B675",
"S. c #B1C956",
"D. c #CAC75E",
"F. c #C5E959",
"G. c #CEC163",
"H. c #D5CC62",
"J. c #D9C969",
"K. c #DAD363",
"L. c #DAC77A",
"P. c #DBD17F",
"I. c #E1CD6C",
"U. c #E6DB67",
"Y. c #E6D66A",
"T. c #EDDD6C",
"R. c #E3C778",
"E. c #E8D978",
"W. c #F0DE7E",
"Q. c #EBE168",
"!. c #F4E56E",
"~. c #F5E96C",
"^. c #FAEE6D",
"/. c #EDE37A",
"(. c #F5E877",
"). c #F7EB79",
"_. c #FAEE7C",
"`. c #7E7F80",
"'. c #867F80",
"]. c #7F8288",
"[. c #878685",
"{. c #8C8B84",
"}. c #8C8D8D",
"|. c #8D8E8D",
" X c #918E86",
".X c #989689",
"XX c #9A968E",
"oX c #8F9198",
"OX c #969796",
"+X c #A89684",
"@X c #B69C84",
"#X c #A39E93",
"$X c #ABA687",
"%X c #A2A08D",
"&X c #BAA585",
"*X c #A8A694",
"=X c #A6A299",
"-X c #AAA69A",
";X c #AEAA9C",
":X c #B3A794",
">X c #B1AE9C",
",X c #B4B19C",
"<X c #B8B59C",
"1X c #9D9DA3",
"2X c #A9A6A7",
"3X c #ADACA6",
"4X c #B6B3A1",
"5X c #B9B6A1",
"6X c #BDBBA3",
"7X c #B5B4AA",
"8X c #B2B2B3",
"9X c #C5AA8B",
"0X c #D2AB86",
"qX c #C9B58B",
"wX c #DAB887",
"eX c #CBAE94",
"rX c #CEB392",
"tX c #D3B493",
"yX c #D3BC91",
"uX c #DABA95",
"iX c #E1BE9B",
"pX c #C1BEA4",
"aX c #D8C58B",
"sX c #DBC495",
"dX c #E4C984",
"fX c #EBD685",
"gX c #ECDA8E",
"hX c #E3C89A",
"jX c #EEE582",
"kX c #F6EA86",
"lX c #FBF084",
"zX c #FBF08B",
"xX c #F3EB98",
"cX c #C3C1A6",
"vX c #C9C7AE",
"bX c #D2C7AE",
"nX c #E1CCAD",
"mX c #EAE3B4",
"MX c #CECECB",
"NX c #EEEBD2",
"BX c #E7E7E7",
"VX c #F3EDE3",
"CX c #F9F9F9",
/* pixels */
"qXsXg.0 y &X9X&XsXhX&X$ o . V eX+XyXuXtX&Xr x qXsXh.N 2.5.5.5.3.5.3.5.3.5.Z s qXg.: u 9X9X9XsXsX+Xo @   _ yX@XeXtXtX&Xq V rXrXqXyX",
"tXg., N m * : : x I y - +. .@ u s g ` 9Xy 5 B y &Xu.N k.l.q.w.l.l.z.5.5.@.+.X.V y N 7 * : : x P w - +.v O d s j u.u.& 6 m u &XyXqX",
"iX` 1 Q.H., 7 *.+ 2 o.- O.#.2 =.D.=.1 g s D.U.B _ h.X.q.6.l.k.k.5.6.6.2.6.*.l J 4 ~.G.> 8 o.o 3 o.- +.#.> <.D.&.1 : 6 H.K.B _ sX9X",
"9Xq   m q.*.a U T }.2X2X2XoXT T T T T T T T T T T T T T T T T T T T T L p z ! c L T T T T T T T T T T Y ! c U T T T T K $.6 V uX9X",
"y 6 m $ o.f NXjXR.dXdXdX_._.).).).).(.R.(.).).).).).).(.E.E.E.)._.).).(.~.T.I.Y.(.).).).).).).).).E.E.E.~.~.).E.R.L.E.mXL % $ ` tX",
". D.Q.q.2 NXfXA.R.J.9.%.e.}.}.7X7Xh.C c %.&.&.{.}.-.C C C C c C %.&.&.>.0.0.8.&.&.{.{.>.0.0.w.L.h.g.g._ }.:Xx.0.v.Y.A.R.NXh &.j tX",
"0 N X.b r E.A.<.a f S S ].[.[.[.D S S S S S S S S S S S S S S S S S S f w l z g S S S S S S S S S n z g S S S S h u %.B.R.j 2 x tX",
"u.+ - v ].wXM.y h MXkXwXwXwXjXzXzXzXzXlXjXfXlXlXlXzXlXkXjXfXfXkXlXlXlX(.~.T.T.).zXzXlXlXlXlXkXjXfXW.(.).jXwXwXfXmXU f %.A.2X$ @XtX",
"` 8 S.1.{.0X>.f vXdXl o 1 1 t t 8XMXh t t 1 t t 1 , @ u g i g g d d d s.z.-.u @ > 1 y u G MX8Xt t 1 t t 1 1 o d A.mXh B C.-X0 P 9X",
"u.5 1.1.{.C.<.q dX( > T.~.U.BXBXCXCXBXBXNXY.BXNX^.^.d.% R XXt.t.>.>.r.t.R ; * B ~.~.mXBXBXCXCXBXBXY.NXBXU.^.J.p B fXf r.C.-X% 2 u ",
": $ > v [.R.s G uXl 8.T.l @ K L 7X2XY Y Y Y L j 4 8.N.3XfXB.N.i.( i.N.C.A.pXi & ;., h L  X2XOXY Y Y L K @ l ^.i.4 A.}.I n.;X..S.. ",
". 8.w.%.-.).y G wXm b.d.: XX=X,XpX;XpXcXcXcX6X5X{.$ B kXJ.a L *X4X*XL u J.R.Y i & Y ;X=X6X;X;XcXcXcXpX6XXXr b.N.4 C.}.J V.x.*.N u ",
": 8.D.4.$._.y D dXs b.B .XcXcXcXcXcXpXcXcXcXcXcX5Xj m wXN. X;X6XcXcXpX#Xz.T.B x : cXcXpXcXcXpXcXcXcXcXcX6X#X, H.y C.}.J A.xXV : 9X",
"@X3 1.1.$._.y d !., b.$.%XcXcXcXcXcXcXcXcXcXcXcXcX.Xm wX6 =X,X;X4XcXcX;XS !.Q c : cXcXcXcXcXcXcXcXcXcXcXcX6X, H.; C.-.J V.aX:   V ",
"V 4 m *.$._.y s (., b.$.%XcXcXcXcXcXcXcXcXcXcXcXcX.Xl gXm 6XcX4X6XcXcX;XJ xXQ W : cXcXcXcXcXcXcXcXcXcXcXcX6X> T.u L.s.L 9X8.5 N . ",
". w.K.1.d.).y s (., b.$.%XcXcXcXcXcXcXcXcXcXcXcXcX.XM (.P 6XcXcXcXcXcX5Xj xX_ ~ , cXcXcXcXcXcXcXcXcXcXcXcX6X> ~.i V.>.K V.8.o.o.q ",
"u 5 N *.f.(.y s (., b.$..XcXcXcXcXcXcXcXcXcXcXcXcX{./ !.K 6XcXcXcXcXcXcXn xXV.[ k cXcXcXcXcXcXcXcXcXcXcXcX;Xi.K.0 V.%.J m.<.+ x rX",
"yXw + 1.M.W.y C (., b.$. XcXcXcXcXcXcXcXcXcXcXcXcX XV jX] pXcXcXcXcXcX6XY !.:Xp.x 5XcXcXcXcXcXcXcXcXcXcXcX;Xd.H.; V.%.J m.<.- V tX",
"qX0 8 2.K._.y C E., b._ pXcXcXcXcXcXcXcXcXcXcXcXcXpXC jX#X>XcXcXcXcXcX6X*XR.[.} u.cXcXcXcXcXcXcXcXcXcXcXcXcXj.H.; V.%.J &X<.1.5 @X",
"0 8 S.+.&.).y -.)., b.C *XcXcXcXcXcXcXcXcXcXcXcXcX<Xm kX#XcXcXcXcXcXcXcX,XA.[.a.! cXcXcXcXcXcXcXcXcXcXcXcXcXV H.; V.%.J A.<.5 a qX",
"o 7.2.H $.^.y B )., Y.z %XcXcXcXcXcXcXcXcXcX6XcXcX.Xm lX$XcXcXcXcXcXcXcX:XA.[.} z cXcXcXcXcXcXcXcXcXcXcXcX6X, H.; A.%.J J.8.o V sX",
"O X.7 d $.^.P s ~., J.z .XcX6XcXcXcXcXcXcX;X;XcX6XY m lXV cXcXcXcXcXcXcXI B.[.{ u pX6XcXcXcXcXcXcX4X=X6X6X,X, H.; I.%.h.^.8.8 j tX",
"&Xg . m -._.I s ~., i.9.0 =X=X5XcXcXcXcXcX6X;X=X#X@ A lXV pXcXcXcXcXcXcXI C.] W & ] =X=XcXcXcXcXcX6X5X=X=Xf ,.H.g ^.%.7XzXx.2 V tX",
"hXj 2 q.{.zXI j ).q i.~.< o y.[.XX%X*X*X5X{.[.L O C A zXV 6XcXcXcXcXcXcXI B.] ^ z O K {. X%X%X*X*X#X[.[.o & A.H.S lXe.vXzX,XO 9XeX",
"uXg a 3.{.zXI G kXr : G._ F F }.}.}.L F F F F F F F F h 6 m L 8X8XU m U m d y j F F F F F F F F K C j F F F K m D lX}.=XjX,X; &XtX",
"eXu.# v [.zXI G kXr q G mXdXwXdXE.xXxXxXxXjXL.E././.xXM Y.;.R 8X8X{.e.[.-.Y.l Y.xXxX_._._./.E.R.fXxXkXfXdXdXfX7X0 E.}.Y E.,X@ &XyX",
"b d b v [.zX XG kXu * mXA.N.0.V V U T =X7X_ P I I I T m s.y.>X6X,X6XpX6XXX<.Q A T L I I y.:X*X*XY R I V B 0.J.dXR J.}. X/.>X4 -.x ",
"2.| 6.:.{.lX>XG kX.X@ hXM.j XX=X-X;X>X;XcXcXcXcX6X6X6XA 0.,XcXcXcXcXcXcXpX>.;.<X6X6X6XcXcXcX6X5XpX6X6X6X=X] s B.}.N.}.*X/.>X=.=.N ",
"6.6.7.4.{._.u.G ).u.0 A.m #X6X6XcXcX5XpXcXcXcXcXcXcXcXA 0.,XcXcXcXcXcXcXcX_ <.6XcXcXcXcXcXcXcXcXcXcXcXcX>X;Xj B.r.v.}.{.Q.4XX.2.2.",
"@.@.6.4.}._.I G zXV r A.y 6XcXcXcXcXcXcXcXcXcXcXcXcXcXA 0.,XcXcXcXcXcXcXpX' ;.5XcXcXcXcXcXcXcXcXcXcXcX;X4XpX.Xs.-.c.}.L U.7X..5.5.",
"6.q.k.+.}._.V D zXV q ~.u pXpX6XcXcXcXcXcXcXcXcXcXcXcXA Z.6XcXcXcXcXcXcXcXj.;.5XcXcXcXcXcXcXcXcXcXcXcX5X4XcX-X' %.c.}.L Y.7XZ 3.@.",
"z.q.l.:.}._.y G zXV q T.A 5X=X=X-X6X>X>X5XcXcXcXcXcXcXA s.<XcXcXcXcXcXcXcXx.;.<XcXcXcXcXcXcXcXcXcXcXcXcXcXcXXXr.%.s.}.J N.7XX.6.2.",
"3.@.@.+.[._.y G kXV q C.m -X=X=X=X=X;X6X6XcXcXcXcXcXcXV ( *X5XcXcXcX5X5X5X>.;.5XcXcXcXcXcXcXcXcXcXcXcXcXcX5XJ B.%.s.}.J N.,X..6.2.",
"2.2.6.+.{._.y D (.V q A.v.Y >X,X=X=X-X-X4XcXcXcXcXcXcXV N.g  X*X,X,X-XXXj 9.;.<XcXcXcXcXcXcXcXpXcXcX6X;X>X#X1 B.-.<.y.J N.>XX.6.q.",
"6.6.6.+.-.^.y s ~.V 0 gXA.w.J u y.XXXX*X>X>X6XXXXXXXXXq H.J.qXcXMXCXMXN.J.Q.,  XXXXXXXXX=XcXcX>XXXXX.Xf h B Y.R.[.9.%.J B.z.X.3.3.",
"l.l.l.:.$.^.y s ~.V ; XXwXA.gXzXJ.J.J.H.G.G.G.N.d.N.H.a k i.i.^ ' ' ' { d.x u Q.^.!.Y.R.!.Y.G.G.H.J.J.zXzXY.C.nX* w.%.K Y.9.&.w.2.",
"c.w.w.4.$.^.y s ~.d @ i L -.%.%.%.h.NXVXVXu.P P P P _ V & c { { ! } { { ! = 4 e.e.I P P P P _ e.e.-.%.%.%.%.e.j 0 H.%.L T.8.X.c.S.",
" . .3...$.^.y s ~., B ~.,.* 0 0 MXMXf q q q 0 ; %.K.A zXj *X>X<X>X>X<X,Xj H.] ^ n.C * 0 R MX3Xq q q 0 0 % 8.^.( 0 T.C L T.8.....1.",
"I V ..2 Q ^.y s ~., b.9.& {.=X;X5X;XpXcXcXcX5X>XL $ B zXK 6XcXcXcXcXcXcXj T.] ^ p F =X=X5X-X,XcXcXcX6X4X X% H.N.0 B.c L U.;.5 V j ",
"hXu.1 &.$.^.y s ~., b.M y.cXpXcXcXcX6XcXcXcXcXcX;X9 m kXV 6XcXcXcXcXcXcXj B.] ~ * pXcX6XcXcX5XcXcXcXcXcX5X[., H.; Y.C L J.( x tXeX",
"uXP & 0.%.^.y s ~., b.$.%XcXcXcXcXcXcXcXcXcXcXcXcX{.m kXV pXcXcXcXcXcXcXj C.] W i cXcXcXcXcXcXcXcXcXcXcXcX5X, H.; Q.B J Y.( x hXqX",
"` % o % $.^.y s (., b.$.%XcXcXcXcXcXcXcXcXcXcXcXcX.Xm fXj cXcXcXcXcXcXcXL B.[.p.x cXcXcXcXcXcXcXcXcXcXcXcX6X> Y.0 /.%.J U.;.* 9XrX",
"@ =.0.6 $.^.y s (., b.$.%XcXcXcXcXcXcXcXcXcXcXcXcX.Xl kXj cXcXcXcXcXcXcX%XA.'.{ c cXcXcXcXcXcXcXcXcXcXcXcX6X> !.p /.%.J T.8.1 V tX",
"o w.D.=.$._.y L kX, b.$.XXcXcXcXcXcXcXcXcXcXcXcXcX[.l zX{.cXcXcXcXcX5XcXJ B.eXa.c cXcXcXcXcXcXcXcXcXcXcXcX>X! U.u /.}.J E.8.B d yX",
"P > 2 v -.lXy / _., b.$..XcXcXcXcXcXcXcXcXcXcXcXcX XV zX3X6XcXcXcX,X-X5XJ I.nXp.x 6XcXcXcXcXcXcXcXcXcXcXcX-Xd.H.; /.-.J E.x.+ I sX",
"g.> N +.rXzXy C !., b._ pXcXcXcXcXcXcXcXcXcXcXcXcXpXV zXR ;X6XcXcX;X;X5Xn !.:X} ` cXcXcXcXcXcXcXcXcXcXcXcXcXV.H.; T.M J E.,Xq 9XtX",
"` ..F.1.Z._.y C !.s b.C <XcXcXcXcXcXcXcXcXcXcXcXcX<Xe.zXK ,X6XcXcX6X-X,Xn xXu.^ ! cXcXcXcXcXcXcXcXcXcXcXcXcXV H.; T.M J E.s.% : u.",
"I + 5 O.f.~.y s ~.M J.z %XcXcXcXcXcXcXcXcXcXpXcXcX.Xr.kXV =XcXcXcX>X=X-Xj xX/ ! : cXcXcXcXcXcXcXcXcXcXcXcX6X, H.; Q.%.J U.;.5 X.+ ",
". 6 m b f.~.B s Y., I.z XXcXpXcXcXcXcXcXcX5X-XcXpXy.r.wXs =X6XcX6X=X=X;XL kXQ W : cXpXcXcXcXcXcXcX6X-X6XpX<X, H.; Q.=.J U.( o.2.o ",
"o b.K.<.%.^.8.s A.: d.;.f >X-X6XcXcXcXcXcX,X4X;X#X@ r.wXQ XX6XcX6X=X=X-XY R.B x $ .X-X;XcXcXcXcXcX,X5X>X=XJ M H.; I.<.J U.8.N a e.",
"V X.S.1.$.^.B s B.: i.Y.: y .XXX>X,X,X,X6X#XXX[.0 p A wXJ.Y >XcXcX;X;X X0.R.B x p ; ] XX#X,X,X,X,X;XXX.Xf @ C.H.; B.%.J U.D., $ &X",
"9XO 3 1.$.A.q s B.m < ~.B./ _ oXe.oXMXCXBXoX}.&.N.~.Q xXA.s V  X#X$XI l B.R.R w Q f.C oXe.oXoXCXCX1XoXe.=.I.^.=.u C.%.J K.^.5 $ @ ",
"& &.8.*.$.C.q j A.l = 6 D.^.c.oX;.oXoXoXoXoX&.U.^.&.4 [.xXwXB.M.b.Y.B.A.dX*Xi $ M ~.^.OX;.OXoXoXoXoX X=.^.H.s $ 4 C.e.J B.v...1.. ",
"o 4.S.*.$.C.u D 0Xm g x ^ ~ ! W E E E E E W W ^ ~ ~ x & D R y.e.-.Q _ y.D 0 $ i x ^ ^ E c E E E E E c E ~ ^ x i 4 C.}.K M.8.N b P ",
"_ - 2 *.$.C.>.0 sX;.: u c ) a.} m.m.m.m.m.{ m.a.c c * $ =X-X=X;X>X,X;X;X;X;Xq $ x c } m.{ m.m.m.m.m.{ m.) c x @ B hXq r.A.<.  P hX",
"hXe - 4.e.C.>.% MX0X;.% : e k [ k w p k ^ [ [ e w * : $.<.<.<.x.L.P.P.c.0.0.>.> * w i ^ ~ k < k k { [ k e 0 * =.M.NX* B C.x.7 b 9X",
"` > 1.4.{.0X0.@ u nXfXJ.I.T.E.jX/.E.L.V.0X0X0XV.C.E.T.T.A.C.(._._._._._.~.~.(./.E.A.V.0X0XV.V.L.E.jX/.E.T.T.Y.E.mXj o M C.;Xo.5 &X",
"+ 1.S.O.h A.R.4 i g , p p z z +XeXhXnX_ z c k k k p z c z C ! ! ! ! ! h.f.! c ! p k k k z c z ! ! r.! z l k p < g i = N.A.L + V tX",
". 2.*.H 9 mXC.J.4 * g x c c ~ ) { p.p.a.{ p.! ^ ) ) { p.} p.m.m.m.m.m.m.a.[ } m.a.[ ) ! { p.p.p.} } [ ~ c c x x : & G.A.xXh 2 V tX",
"u b - 4 $ R hXC.N.A M m m m m Q ,.( i.a.p.' / m M d.d.;.,.,.( M B B ,.d.d.d.d.d.n.Q M m ! { a.d.( ,./ m m m M M B K.A.dXOXo 8 d yX",
"sXj o =.- i g %X8.8.8.8.$XmXNXVXVXMX3X3X3X2X2X2X3X3Xr.( / ( u.3X3X3X3XvXbXd.( 3X7X3X2X2X2X2X2X3X2X2X7X7Xx.:X8.8.8.8.$X`.u * O u.sX",
"tXi v S.m : i w x x W ~ ~ } m.0X0Xm.^ a.^ ~ ~ ~ c ~ a.[ f.f.f.f.f.f.f.m.V.p.~ a.f.' ~ ~ ~ ~ a.^ a.f.f.f.{ ~ ~ W c x i g 0 1 u yXrX",
"sXP - #.O.o @ i i i g p z ~ [ ) ) } [ a.) c c W ) [ i.[ [ } { ' ' ( a.a.p.[ [ i.a.} E c k c p.[ a.[ ) [ ~ c p p i i i $ 2 o.$ @XrX",
"yX9Xj r y x V y u q & 2 4 = * : k ~ ' p : > > & ! { V s 6 6 5 5 4 4 d d d 4 ! ` W c : : q y j u c / 5 & & - & : w : % 1 8 2 I eX9X",
"qXyXtX@X@XyXuXtXrXhX_ o @ O h.9X&XyXsXuXuX` 9 V sX&Xb 2.2.k.3.3.3.q.5.3.5.3.A eXeX@X&XyXsXsXyXhXP . @ $ @X&X&XyXsXsXsX_ 9 P uX9XqX"
};
