/* XPM */
static const char *c[] = {
/* columns rows colors chars-per-pixel */
"65 65 244 2 ",
"   c #161C2E",
".  c #191E2F",
"X  c #1F1F30",
"o  c #201E2F",
"O  c #17202F",
"+  c #1A212F",
"@  c #172030",
"#  c #1B2331",
"$  c #1E2A33",
"%  c #1F3337",
"&  c #22212F",
"*  c #232232",
"=  c #2C2533",
"-  c #242C34",
";  c #2A2D37",
":  c #342936",
">  c #3C2C36",
",  c #253133",
"<  c #2C3334",
"1  c #283939",
"2  c #333C35",
"3  c #353638",
"4  c #343B3A",
"5  c #412D37",
"6  c #4B3339",
"7  c #56383C",
"8  c #623D3F",
"9  c #2B463A",
"0  c #384639",
"q  c #35573C",
"w  c #42453A",
"e  c #424E39",
"r  c #5C4139",
"t  c #44523A",
"y  c #4A553A",
"u  c #4A5B3B",
"i  c #55573E",
"p  c #575A3E",
"a  c #734E3C",
"s  c #4C623E",
"d  c #53633D",
"f  c #59673E",
"g  c #5F713E",
"h  c #60733F",
"j  c #2F3D40",
"k  c #3B3B41",
"l  c #433744",
"z  c #583C4E",
"x  c #673E47",
"c  c #613F50",
"v  c #2A4841",
"b  c #3A4B48",
"n  c #2D5747",
"m  c #3A5447",
"M  c #3A6947",
"N  c #32634C",
"B  c #386A51",
"V  c #3B7452",
"C  c #3B7552",
"Z  c #474646",
"A  c #445847",
"S  c #575946",
"D  c #524F50",
"F  c #595553",
"G  c #784646",
"H  c #6C4450",
"J  c #7B4552",
"K  c #794757",
"L  c #625B56",
"P  c #675D59",
"I  c #4A6447",
"U  c #576B47",
"Y  c #437445",
"T  c #477E49",
"R  c #59764A",
"E  c #477353",
"W  c #5B7C52",
"Q  c #587758",
"!  c #666A45",
"~  c #657544",
"^  c #657941",
"/  c #6A7D42",
"(  c #767847",
")  c #70675E",
"_  c #6A7355",
"`  c #745561",
"'  c #547460",
"]  c #696565",
"[  c #7C6F64",
"{  c #7E7464",
"}  c #727A6A",
"|  c #82363F",
" . c #865B3F",
".. c #8B3941",
"X. c #874C48",
"o. c #99564D",
"O. c #864C56",
"+. c #8D5151",
"@. c #9B5650",
"#. c #A2594F",
"$. c #A55B4F",
"%. c #B64C53",
"&. c #A55A50",
"*. c #A85D50",
"=. c #B15055",
"-. c #886B48",
";. c #9B6744",
":. c #817F49",
">. c #AD624F",
",. c #A76949",
"<. c #B1664F",
"1. c #B46A4E",
"2. c #B96E4D",
"3. c #B2774E",
"4. c #BA734B",
"5. c #AB6551",
"6. c #855A68",
"7. c #87796A",
"8. c #937B72",
"9. c #AE7D7A",
"0. c #C54B4F",
"q. c #D54C4D",
"w. c #DB4C4C",
"e. c #D95554",
"r. c #C3774C",
"t. c #C47B4C",
"y. c #CA7E4B",
"u. c #DE645D",
"i. c #4C874C",
"p. c #538C4A",
"a. c #55954E",
"s. c #488651",
"d. c #5E8153",
"f. c #529550",
"g. c #5A9D51",
"h. c #6C8344",
"j. c #66824B",
"k. c #6B864A",
"l. c #718645",
"z. c #748B44",
"x. c #7B8A47",
"c. c #76874B",
"v. c #649B4B",
"b. c #7D9546",
"n. c #78944A",
"m. c #678854",
"M. c #798957",
"N. c #6D9459",
"B. c #7A9B52",
"V. c #729C5E",
"C. c #6AA84D",
"Z. c #6DA94D",
"A. c #78B74E",
"S. c #79A25A",
"D. c #7BA35B",
"F. c #6B956E",
"G. c #749B6C",
"H. c #7B9C6B",
"J. c #6B9572",
"K. c #729771",
"L. c #789970",
"P. c #75A362",
"I. c #7BA464",
"U. c #7BA962",
"Y. c #77A169",
"T. c #86884C",
"R. c #88974B",
"E. c #93944E",
"W. c #858E53",
"Q. c #899557",
"!. c #979852",
"~. c #B09453",
"^. c #8AA549",
"/. c #8BA84C",
"(. c #92AC4C",
"). c #9AAB4E",
"_. c #95B24C",
"`. c #9AB64E",
"'. c #9BB94E",
"]. c #84A457",
"[. c #8AAC53",
"{. c #84AD5D",
"}. c #8AAD5B",
"|. c #98AB59",
" X c #8EB256",
".X c #8AB059",
"XX c #94B553",
"oX c #99B652",
"OX c #9DB950",
"+X c #93B15A",
"@X c #9BB25D",
"#X c #A7A955",
"$X c #B1AD57",
"%X c #A3B553",
"&X c #ACB555",
"*X c #A2B951",
"=X c #ABB954",
"-X c #A4B35D",
";X c #ABB55C",
":X c #B2B457",
">X c #B2B956",
",X c #B3B55D",
"<X c #B8B45A",
"1X c #B5B959",
"2X c #BCBA5A",
"3X c #829462",
"4X c #849E6C",
"5X c #958970",
"6X c #958B72",
"7X c #9A8874",
"8X c #AB977D",
"9X c #B09F7E",
"0X c #83A562",
"qX c #82AA61",
"wX c #8BA964",
"eX c #8CA26A",
"rX c #94A667",
"tX c #94AE60",
"yX c #9CAA64",
"uX c #99B060",
"iX c #A3AD62",
"pX c #A4B060",
"aX c #ACB160",
"sX c #B0A07E",
"dX c #CC804B",
"fX c #CF8A4F",
"gX c #CF8B50",
"hX c #D29552",
"jX c #D59B54",
"kX c #D9A859",
"lX c #DCB45D",
"zX c #DEB95F",
"xX c #E0BD60",
"cX c #9C9D86",
"vX c #B09A89",
"bX c #BDA885",
"nX c #BBAAA4",
"mX c #C9AC8E",
"MX c #CBB48D",
"NX c #CCB88D",
"BX c #DCA791",
"VX c #CEB8A7",
"CX c #E0C2A7",
"ZX c #E7D4B2",
/* pixels */
"MXmX7X  - sX5XMXmXD - - [ 8.MX{   Z sX5XZ w   , , 3 - sX5X7X  L MXL < < -   < <   Z L w < [ l   { l , L 5XL < w D MXmXmXl - 9XmXmX",
"mXmX4 ^.l.# , Z 4 4 V.d.3 i Z w $X0 1 A ! 2Xi z./ ; i < y k N.1 ) ; $X#XN.R #X#X1 W ! 2X#X; 0 $X( y _.0 0 - :.lXS ) 7.F y ^.4 bXNX",
"mXbX< (.`.h `.^ ^.(.M.m.!.2X( <X<Xp A qX!.2X).`.^ ).>XB.`.(..X0 #X! E.2X-X1X2XT.( :X!.*XOX).! #X>X( (.n.{.E.T.#X( $X( b _.`.u sXNX",
"9X4 m 9 {.`.`.(.z.=X=X2X2X2X&X2X&X:X( !.2X2X2X*X*X'.`. X`.`.OX%X1X2X<X>X2X2X1X$X1X2X2X2X>X*X*X'.`.`.`.'.=X=X:X:X2X>XT.d.XXh.2 L MX",
"5XA U.[.oX`.`.`.`.`.`.`.*X*XOX=X`.'.`.=X2X>X2X2X2X>X=X=X*X`.`.`.`.`.=X`.*X`.`.'.OX2X2X>X2X2X2X=X=X=X'.`.`.`.`.*X*X_.^.U.{.(.`.y 8X",
"sX4 U z. X XU.U.{.*X>X>XOXOX`.XXoX`.`.`.`.`.`.`.oX{.U.U.{.U.oX*X2X=XOXoXoX X`.`.`.`.`.`.`.`. XU.U.U.{.{.OX=X1X*XOX`.U.U.`.^ / < bX",
"NX4 ^.^ oXoXU.{.U.qX;X1X-X{.{. X{.oXoXU.XXXXoX.XU.{.oX.XU.{.qX@X2X;X@X{.{. X}.`..X{.oXXXoX{.U.XXoXU.{.{.qX;X1X-X}.{. X{.oX`.t 5XNX",
"NXZ ^.(.`._._.'.+X{.XX}. X{.XX].S.XX{.{.{.U.{.oXoXoXoXoX`.OX}.}.oX}. X{. XU.{.XXU.{.U.{. X`.oXoXoXoX'.+X{.XX}. X{.XX XU.U. XU ) NX",
"NX7.< y 2 U ! 2X2XiXJ.rXQ.R 0   1 W U.oXoX`.oXXX0XeXL.4X@X2X1XH.K.aXI.wXU.{.{.U..XoX`.`.oX}.4X4XH.H.,X2XiXK.rXrXwXqX{.{.{.U.k.i L ",
"{ ! $X,X|.2X1X,XtX-XiXE.o 4 %.0...* j.wXtX%X@XyX<X;X,X2X1X;XtX,XpX=X2X2X-X'.`.qXqXtX@X=XyXpX1X-X2X2X1X-X-XyX=X>X2X;X*X`.oXqX;X2X4 ",
"- ! f [..X+XqXU.U.P.0 : e.ZXu.w.e.c * ).=X=X*X`.@X X{.+XU.U.U.U.{. XoXXX@X`.`.oX=X=X=X*X'.*XoX.X+XqXU.U.U.U..XXXoX+X+X`.XX@XQ.i P ",
"9X; e _.XXXX.X{. X4 * 0.w.e.w.e.ZX=.| , %X>X2X=X*X`.XX X}.{. XU.U.{.}.}.-XOX`.`.`.'.=X2X2X=X'.oXXX.X{.}.{.U.U.{.}.@X@X`.`.`.XXU { ",
"{ U #XOX`.`.`.`.R.* O.w.e.w.w.e.VXmX%.: U =X'.=X=X`.`.`.`.`.`. XoX%X1X;X-X1X=XOXOX`.*X*X*X>X*X`.`.`.`.`.oX XoX>X>X;X,X=X*XOX`.`.4 ",
"* ^ U U. XOX`.b.. K O.e.ZXCXe.w.w.q.K H * S. X XoX`.`.`.`.`.`.XX.X{. XU.U.tXtXtXwXU.{..X XXXoX`.`.`.`.`.`.XX{.}.{.U.U.tXtXtXS.z.4 ",
"8X2 _.`. XXX[.- z 8.O.=.w.BXu.q.w.q.O.O.l <  XoX`.`.`.oX}.}.'.}.}.`.'.=X{.}. X{.{.{.{. X X`.`.`.`.XX{.XXXX{.XX`.*X*XU. X}.{.U # 9X",
"5Xe ^.l.XXI.3X. 6.nXw.0.+.w.0.O.%.0.@.u.O.O b.XX{.XX}.G.yX4XH.eXyX@X1X2X;XoX`.OX=X=X>X*X`.}.}.XXI.4XrX4XH.yXyX%X2X2X@X`.`.*X=X2 7.",
"9X# 3 :.3XrXrX* l 6.%.%.VXBXw.w.w.q.9.VX6.. m.H.rXJ.eXeX1X2XaXlX2X2X2XlX2X>X`.=X>X>X=X}.H.4X4XK.rXQ.!.2X,X2X2X2X2X2X2X*X'.=X#X( y ",
"8.e _.>X2X>X2X|., = H K ` 6.O.O.O.` ` D * 0 aX;X1X,X1X>X2XtX@X2X*X*X-XqX2X2X=X`.`.*X;XiX;X;X1X2X).  # Q.;X=XOX%XtXtX2X2X*X`.OX!.3 ",
"8X2 b.*X>X{.qXU.P.0   : = z z z l = = ; p 2X>X*X'.!.f I V.U.U.XXXXU.U.U..XOX`.*X>X=X>X2X=X).)./ . R A.$ {.oX.XU.{.U.oXOX`.=X2Xl.< ",
"9X- /. X{.U. XU.m.$ ; nX] P ] ] ] D . I `.OX'.'.^.1     9 m U.U.U.{.oXoX XoX`.'.XXoX'.'.R..     @ A.A.0 U.U.{.{.`.XXXX`.`.^.R `.u ",
"4 / _.=XoX%X'.XXl.U Z nXZXVXZXZXVXcX- W /.`.`.).<   s Z.1 O t [.XXoXXX`.`..X.X}.U.{.`.0 + 4.4.* B f.1 - [. X`.XX`.`.`.{. XS.- t Z ",
", _.`.2X2X,X+X XN.W 9 5XcXcXcXcXcX} U d.S.{.oX#X+ q A.A.A.+ . A S. X{. X}.U.U.U.U.U.S.  5 y.1.. V T   . - V.}..X.X XS.U.U.U.R B.~ ",
"{ D ~ 2X%XXXXX{.U.V.m.W Q Q ' Q Q j.W F.U.oX=X&Xw 9 C.A.v.$ 1   A R E Q J.I.I.{.F.G.< X o.G >.= V # 7 *.* , U.Y.G.J.J.I..XW W `.z.",
"{ S <X2X*X'.`. X.XU.U.Y.L.rXeXK.yXrXaXyXrX=X=X! i   9 g.M M M         < A M.yXyX,XU   X.# y.dX>.&.>.G hX .. P.L.rXyXK.yXT.:.3 f 2 ",
"  y 2X=X=X*X`.`.`.@X@XrX,X2X1X,X2X2X2X2X2X1Xf + .     N f.f.i.9   G X.7   3 w i (   ;.>.7 lX3.*.fXgX= ;.dX. rX,X2X2X,X2X2XlXT.w k ",
") # 0 ^ OXOXOX`.`.*X'.=X1X=X*X1X*X=X*X1X<X! + * +.G . # B f.f.q   : #.G   & & & . a r.O.+.hX<.dXjXzXr.x dX. %X1X=X*X2X*X=X*XE.<Xi ",
"  ^.`.).XX}.+XoX`.`.'.'.'.OX'.*X'.`.'.*Xx..   X.$.$.8   n V f.s.% * #.x = ,.t.,.= . x J >.kX4.jXkXjX<.o.;.. `.'.'.`.'.`.`.`.`.>X0 ",
"- 0 0 [.U.U.U.U.qX=X2X2X>X+X X{..X`.h.^ d     H #.&.G * @ B T s.1 r 3.r ,.hXhXdX;.: . x 2.r.r.dXkXt.J 1.> < 2X>X+XXX{.{.`.`.z.< { ",
"NX- y `.oX`.{.oX X X@X*XXXXX XoX X^ $     6 G * 8 2.2.6 @ B V V 1 4.dXdXkXxXjXdXdXr   * t.&.r.dXdX@.J 7 :   R.[.XX XoX X.X.XU.0 7.",
"* W d.G.{.}.{.*XiXK.I.G.I.U.{.U.R - . X.~.~.t.,.,.dXy.,.;.V V V -.y.y.dXkXxXfXdXdX,.: . r +.dXdXy.@.J ,.>.= @ , V.{.U.U.{.U.j.g Z ",
"* U V.I yXiXiX2X1X,X4X,X,X;X+Xl.# . X.<.xXzXzXgXdX4.*.+.O.5.t.dXdXy.fXlXlXzXzXzXkX1.o.* : J >.>.>.&.J > &.X.% % c.tXXXoX XU..X`.e ",
"9X< / A qX-XuXtXU.qX@XOX*X=X:X~   G >.lXxXxXxXzX3.J J J $.<.dXdXy.+.O.J ;.y.lXlXjXy.>.*   : &.&.&.#.J   &.X.V % R.1X=X`. X@X;XE.Z ",
"5Xu `._.`.oX.XU.U.U.U.U.{.{.N.. : X.t.kXkXkXkXkXJ J O.@.t.dXhXhXhX~.&.O.J 5.y.dXdXdX>.7   * &.&.G .     &.. v 1 {.qX{.`.`.`._.OX4 ",
"7X0 R.`.`.`..X.X`. XU..XOX*X#X. 7 1.y.fXkXkXgXa J J @.1.jXkXxXxXxXzX2.@.O.J @.y.dXdX>.o.. . G 7 @ $ $   : . O l.OX2X2X'.`.`.0 ^ k ",
"  R.`.`.oX`.`.`.`.`.`.oX-X@X4 : o.4.dXfXzXxXhX> H O.1.y.lXxXxXxXjXgXdX2.@.6 J y.dXdX>.o..   * n N N N 9     - c.-XwXuX1X=X).W S.2 ",
"7X< U S.{.{..XoX`.`..X.X`.[.@ > &.4.dXdXfXfXr * J &.2.dXdXgXjXxXhXlXlX4.$.5 * +.y.y.>.&.G   - 9 n .   p.9 9 # h.XX{.U.U.U.U.N.^.e ",
"mX< R.`.`.oX0XK.}.qXG.0X'.E.+ > &.4.y.y.dXdXr x J *.4.dXdXlXlXlXlXlXkXdX1.#.* G 1.&.&.&.X.  2 u < 0 - .     0 z.>X=X{.`.oXoX.X, L ",
"7XD 2 t d 0 !.1XeXrX2X,Xc.;   > &.4.dXdXdX,.> x J <.dXdXdXdXdXdXdXdXdXdX1.#.* = +.&.&.&.X.    A I _ ( U U ( T.#X2X2X2X'.`.*X!.y ; ",
"  ( 2XE.:.2X2X2X1X2X2X#Xe     > &.>.y.dXdXa   x J <.dXdXdXdXdXdXdXdXdXdX1.#.* X x &.&.&.X.    ( $X#XE.E.E.!.#X2X,X,X2X>X*XOX*X>Xi ",
"  #X*X1X2XoX-XqXU.XX).d #     > &.&.t.dXdXa   x @.<.dXdXdXdXdXdXy.y.>.>.*.#.*   7 &.&.&.X.    E.2 < < W +X*XoX}.U.U.>X=XOX`.).d - ",
"7X- b.oX@XU.U.U.U.U.S.m   n @ > @.&.*.t.y.a   x &.<.dXdXdXdXdXy.<.*.&.&.&.#.*   7 $.$.o.*     k.# O , # W {.U.U. X{..X`.`.=XOX`., ",
"L ~ oX.X{.{.`.{. XS.N.t   n 1   7 &.&.&.&.x   x &.>.t.dXdXdXdX2.&.&.@.X.X.X.&   7 $.&.G .     .   q A.q @ V.}..X`.`.`.oX`.XX{.^.Z ",
"0 `.`.'.>X>X%X(.R.u t 2   9 B   > +.&.&.&.X.= x &.&.<.2.y.dXt.>.&.#.7           > X.#.*       9 q q A.q O ].oX`.`.`.XXU.{.U.U.I L ",
"S / / / 1X@XS.k.W @         1     G &.&.&.&.6 : 7 &.&.&.<.<.>.&.&.7 . 9 p.Y M m   : 6 .       i.a.v.p., I P.U.U.U.qXI.P.V.{.oXXX].",
"{ 0 m i '.`.^.j.W @ 1 C.C.9 O O   * X.&.&.&.6 . = &.&.&.&.&.&.&.#.* 1 Z.A.g.f.f.q     O O O   , p.i.- . m.U.U.G.G.K.J.t 0 A U R.g ",
"  V.P.I {.oX^.l.j.O , g.A.g.f.Y     * +.o.&.#.5 = o.$.$.&.&.&.&.5 # a.A.v.9 i.f.M   $ B B N 1   + O O u B.U.G.eX,X1XeX2X2XE.<X; k ",
"- A k.*X X X(.z.l.2     q Y Y M       . : G G G . > G o.&.&.&.&.5 # f.f.q   @ Y q , i.V v   - 2 1 2 u l.x.&X;X2X2X>X2X1X2X1X>XT.D ",
"L 0 #X1X*XOX*X(.z.h.e 2           2 #                 6 x x x x = # f.f.Y q O $ q T s.v   , ~ z.z.z.l.l.R.`.`.*X*X`.=X`.'.'.`.#X4 ",
"* h.s  X{.U.U.{.].z.x./ d < 2 s d ^ f d d d d d d 0                 q f.f.f.Y N T T V #   0 k.^ W W j.n.`.=X=X*XOX`.XXoX`.`.`.0 F ",
"9X) A U. X XU.{.U.}.|.T.S . $ u 0 @ R S.(.B.l.j.W W R R - @ @ @ O   . 9 V V V V V V 1   < R W j.k.S.S.S.tX;X,X-X}.{..X{.oX`.XX_.< ",
"mXP - / _.`.XX`.{.qXXX].  i.a.O 1 B - R m.U.[.n.z.l.l.l.h.h.R ~ h., $   @ @ N N N 1 $ , h.z.z.n._.XXoX}.qXXX}.}.}.XX X{.XX{.{.n.D ",
"8.3 #X:.( |.rX1X,XeXm # O g.g.m , B $   - n.`.XX0XM.W _ k.T.W.Q Q _ U -         - 2 ^ h.n.}.eXeX0XH.T.2XyXG.eXeXwXU.{.{.S.U.oXA 0 ",
"5XS =X>X-X2X2X2XtX-X  B - g.Z.A v B 1 v T @ W.yX,X;X#X#X!.!.tX!.c.x.T.( t t t 0 I k.c.x.Q.pX<X-XT.. Y . U < T.=X1X;X*X`.oXU.U.d.D ",
"MXS b.oX.X+XqXqXU.P.  m m f.A.f.1 b A Z.Z.M R.OX*XXX.X+XqXU.V.j.j.j.l.k.k.l.l.k.c.x.x.x.OX*X@X.Xk.f.A.9   b   XXoX@X+X`.oXoXb.- P ",
"sXZ ~ `. X X{.U. XS., @ b i.C.p.b b p.C.f.< 2X=X*X`. X}.{.{.[.S.m.d.j.j.c.l.l.l.l.z.x.$X2X=X`..   f.A.f.$ B , {..X@X@X`.`.`.b.g < ",
"5Xy >X*XoXoXoXoX`.< n   1 v.A.p.$ $ g.A.Y f *X=X=X`.oXoXoX`.`. XXX%XE.R.W.R.T.b.`.`.%X=X*X>Xx.j m p.C.s.v j e 1X1X;X,X=X*X`._.b.S ",
"sXF f .X{..X`.`.`./ v $ @ A C.v.  @ v.M   O n. XXX`.`.`.`.`.`.XX}.{.XXqXU.tXtX+X}.{.{..X X XoX  $   A.9   N % +X.XU.qXtX+X+Xm.# 8X",
"NXbX4 -XXXoX`.oX`./.  Y 9 $ i.U   1 @ @ n v n.oX`.`.`.`.oXoX`.oXXX`.`.oX{.{. XU.U.U.U. X XoXl.n s.% M % v s.. `.OXoXU. XU.{.oXl.8.",
"sX4 $X2X1XrX4XeXG.G.O Z.v., q 1 Y C.m m m 2 '.oXoXoXoXG.rXK.H.eXrX}.>X2X;X X`.`.OXOX>X*X`.oXl.  V V 1 % m   U @X2X2X+X`.{.S.z.^ 7.",
"5XS <X:X2X=X2X2X,XQ.i 9 C.s.$ 1 C.q 1 1 3 R.}.G.4XJ.eXL.1X2XpX2X2X1X2X2X2X>X`.1X2X2X1X+XI.4XQ A A 4 A b w ( T.1X2X2X2X.XY.U.N.< bX",
"sXw y e _.`.*X*X-XE.x./ 1 N n n v . < 2 x.M.pXaX2X,X2X2X2XuX;X2X*X*X,XqX2X2X1X'.'.'.-XrXaX,X#XE.T.T.W.k.T.R.(.>X@XtX2XqXJ.F.I.m 9X",
"NXbX< (.oX X_.].U.[.l.j.W I U ^ g l.x.T.).2X1X*X'.2XoXU.U.U.{._.oXU.P.U..XOX`.=X2X&X1X2X=X'.l.E.[.U.U.P.XXOX.XU.U.R +X.X].U.0 L NX",
"NXsXy `.(.R l.0 P.I U.R B.^ k.R z.^.z./ _.OX`.(.`.0 B. X{.U.U.I m.W f oX[.oXx.=XT.^.'.'.(.W V.0 U  XW R U.U V.B._.t l.^.l.`.^.7.mX",
"mXmXL y e ) 7.7XP R U.m 2 < U ^.- l.z.- y `._.u l.2 `.d N.U `.R D F ^ l.S y 3 i , _.h.`.^., m # d z.Z 4 m , /./ - ; { Z t (.0 7XmX",
"mXNXNXsXsXNXNXNXbXZ - k bX8X) 3 8X8.{ 8X[ y S 5X[ ; 4 F 4 k 4 ; vXmXP P bX8X5XL 7.< k e 0 7X8X8X{ ) 7XbXbXP # # 5XNXMXMX8X{ 7XNXmX"
};
