/* XPM */
static const char *p[] = {
/* columns rows colors chars-per-pixel */
"65 65 228 2 ",
"   c #161C2E",
".  c #181E2F",
"X  c #1C1E31",
"o  c #1B222F",
"O  c #1D2331",
"+  c #232634",
"@  c #242B34",
"#  c #2A2D35",
"$  c #2B2538",
"%  c #2D2E39",
"&  c #30263B",
"*  c #362E3C",
"=  c #273132",
"-  c #2C3334",
";  c #2D3936",
":  c #2B333B",
">  c #2C3A39",
",  c #323C35",
"<  c #343638",
"1  c #34343B",
"2  c #343A3B",
"3  c #3A393D",
"4  c #4A2834",
"5  c #33423C",
"6  c #3A4539",
"7  c #43463A",
"8  c #414E39",
"9  c #44523A",
"0  c #4A553A",
"q  c #4C5C3B",
"w  c #55573E",
"e  c #565C3E",
"r  c #4C603E",
"t  c #53653D",
"y  c #5A6A3F",
"u  c #5E713F",
"i  c #61743F",
"p  c #3F2C44",
"a  c #293745",
"s  c #343846",
"d  c #3C3B41",
"f  c #473145",
"g  c #423F43",
"h  c #4C314B",
"j  c #5C3854",
"k  c #623A57",
"l  c #6A3D5B",
"z  c #394444",
"x  c #3B5041",
"c  c #394C54",
"v  c #434144",
"b  c #4C4947",
"n  c #514B47",
"m  c #534B4B",
"M  c #475A44",
"N  c #585748",
"B  c #474B51",
"V  c #5A5853",
"C  c #7C4359",
"Z  c #625B55",
"A  c #6A5B55",
"S  c #675D59",
"D  c #4C6647",
"F  c #546B44",
"G  c #586A46",
"H  c #5B7243",
"J  c #58754D",
"K  c #556A56",
"L  c #5C7D51",
"P  c #597359",
"I  c #666843",
"U  c #647541",
"Y  c #6B7746",
"T  c #647941",
"R  c #6A7D41",
"E  c #637E4F",
"W  c #767847",
"Q  c #68665A",
"!  c #74635C",
"~  c #77695B",
"^  c #667B55",
"/  c #727D53",
"(  c #54706B",
")  c #6F6A6E",
"_  c #786E66",
"`  c #747163",
"'  c #7C7565",
"]  c #9D3D42",
"[  c #854F52",
"{  c #824559",
"}  c #9C4D57",
"|  c #934A58",
" . c #945256",
".. c #AC4C51",
"X. c #B55555",
"o. c #817F49",
"O. c #81705D",
"+. c #877867",
"@. c #967A6A",
"#. c #977B6B",
"$. c #937E73",
"%. c #5F8153",
"&. c #6E8545",
"*. c #65814C",
"=. c #6A834A",
"-. c #6B894F",
";. c #718645",
":. c #738A44",
">. c #7A8947",
",. c #77874B",
"<. c #7A9448",
"1. c #628152",
"2. c #6A8753",
"3. c #788553",
"4. c #6C9459",
"5. c #769B57",
"6. c #7AA35C",
"7. c #5B8065",
"8. c #789B6C",
"9. c #6C9671",
"0. c #6F9671",
"q. c #76A364",
"w. c #7BA962",
"e. c #84864D",
"r. c #84894A",
"t. c #8A894C",
"y. c #88964A",
"u. c #839D49",
"i. c #93934E",
"p. c #869454",
"a. c #989952",
"s. c #A39F53",
"d. c #8AA549",
"f. c #88A44B",
"g. c #97A84E",
"h. c #91AC4C",
"j. c #95B24C",
"k. c #99B14E",
"l. c #9BB94E",
"z. c #87AA55",
"x. c #84AD5D",
"c. c #8AAF5A",
"v. c #96A957",
"b. c #8DB256",
"n. c #8AB059",
"m. c #94B553",
"M. c #9AB652",
"N. c #9DB950",
"B. c #92B15A",
"V. c #9CB25D",
"C. c #A6A754",
"Z. c #B1AD57",
"A. c #A9B455",
"S. c #A2B951",
"D. c #ABB954",
"F. c #A4B35D",
"G. c #ADB65B",
"H. c #B2BA56",
"J. c #B6B659",
"K. c #B4B45C",
"L. c #BDBA5A",
"P. c #8A816C",
"I. c #998569",
"U. c #9D826D",
"Y. c #839C69",
"T. c #8E8972",
"R. c #958970",
"E. c #9A8874",
"W. c #9C9277",
"Q. c #A38A6E",
"!. c #A9926F",
"~. c #A58970",
"^. c #AA957A",
"/. c #AE9C7D",
"(. c #B49676",
"). c #B39B76",
"_. c #BA9C79",
"`. c #8AA467",
"'. c #82AA61",
"]. c #97A766",
"[. c #95AE61",
"{. c #A2AD64",
"}. c #B0A07E",
"|. c #BCA179",
" X c #C4A57C",
".X c #C7A97E",
"XX c #588387",
"oX c #669897",
"OX c #739494",
"+X c #76A4A8",
"@X c #B39D85",
"#X c #BDA985",
"$X c #B3B593",
"%X c #86B1AD",
"&X c #CEAE80",
"*X c #C9AC8E",
"=X c #C7B286",
"-X c #CBB48D",
";X c #CCB88D",
":X c #D5B583",
">X c #D7B886",
",X c #D8BA87",
"<X c #D9BC89",
"1X c #C6BC93",
"2X c #DCC18E",
"3X c #CBC198",
"4X c #D8C696",
"5X c #E2CB96",
"6X c #E3CD99",
"7X c #E6D29D",
"8X c #DBCFA0",
"9X c #E6D7A3",
"0X c #E9D6A1",
"qX c #EADAA5",
"wX c #EDDEA9",
"eX c #EFE1AB",
"rX c #F0E2AE",
"tX c #EFE2B3",
"yX c #F0E4B4",
"uX c #F2E6B9",
"iX c #F2E8BE",
"pX c #8BC2C3",
"aX c #D8D9DB",
"sX c #F5EDCE",
"dX c #DFE0E2",
"fX c #FAF6E8",
"gX c #FDFBF3",
"hX c #FFFEFD",
/* pixels */
"-X*XE.  + }.R.-X*Xm @ @ _ R.-X'   v }.R.v 7   = = < + }.R.E.  Z -XZ - # @   # #   v Z 7 - _ g   ' g = Z R.Z - 7 m -X*X*Xv + /.*X*X",
"*X*X2 d.:.O = v 2 2 5.%.< w v 7 Z.6 > M I L.w :.R # w - 0 d 4.> ~ # Z.C.4.J C.C.> L I L.C.# 6 Z.W 0 j.6 5 @ o.L.N ! +.V 0 d.2 #X;X",
"*X#X- h.l.i l.T d.h.3.2.a.L.W J.J.e M '.a.L.g.l.T g.H.<.l.h.n.6 C.I i.L.F.J.L.e.W K.a.S.N.h.I Z.H.W h.<.x.i.t.C.W Z.W z j.l.q }.;X",
"/.2 x 5 x.l.l.h.:.D.D.L.L.L.A.L.A.J.W a.L.L.L.S.S.d.d.5.d.d.d.y.C.C.s.g.C.C.C.Z.H.L.L.L.H.S.S.l.l.l.l.l.D.D.J.J.L.H.e.%.m.&., Z -X",
"R.M w.z.M.l.l.l.l.l.l.l.S.S.N.D.l.l.l.D.L.H.L.C.C.- o o o o o o O o o o o o = d.d.L.L.H.L.L.L.D.D.D.l.l.l.l.l.S.S.j.d.w.x.h.l.0 ^.",
"}.2 F :.n.n.w.w.x.S.H.H.N.M.l.m.M.l.l.l.l.d.d.; o       # 1 1 < 1 1 1 1 1 1   o - u.d.l.l.l.n.w.w.w.x.x.N.D.H.S.M.l.w.w.l.R R - #X",
";X2 d.T M.M.w.x.w.'.G.J.F.x.x.n.x.M.M.w.u.; o     . s z  X9XqXqXqXqXqXqXqX4Xd 1   o - <.M.c.w.m.M.w.x.x.'.G.J.F.c.x.n.x.M.l.9 P.;X",
";Xb d.h.l.j.j.l.B.x.m.c.n.x.m.c.w.m.5.4.;     % 3 B dXfXtXeXeXeXeXeXeXeXeXeXqX3Xd     - 5.l.M.M.M.M.l.B.x.m.c.n.x.m.n.w.w.n.F ~ ;X",
";X+.- 0 , G I L.L.{.0.].].'.w.x.x.4.> o     3 |.wXfXgXyXeXeXeXeXeXeXeXeXeXeXeXeX3Xz <   ; 5.Y.Y.8.8.K.L.{.0.].].`.'.x.x.x.w.-.w V ",
"' I Z.K.v.L.J.K.[.F.{.H.H.L.G.S.l.5     1 z 3XyXgXhXuXeXeXeXeXeXeXeXeXeXeXeXeXeXeXqX3Xd   < a.F.L.L.J.F.F.].D.H.L.G.S.l.M.'.G.L.3 ",
"+ I y z.n.B.'.w.w.w.w.n.m.M.d.u.:.;   . !.9XyXgXhXhXyXeXeXeXeXeXeXeXeXeXeXeXeXeXeXeXeX3Xo   ; 5.B.'.w.w.w.w.n.m.M.B.B.l.m.V.p.w S ",
"}.% 7 j.m.m.c.x.n.x.w.w.x.5 a a O     1 ).qXgXhXhXhXsXuXeXeXeXeXeXeXeXeXeXeXeXeXeXeXuXdXB     , m.n.x.c.x.w.w.c.c.V.V.l.l.l.m.H +.",
"' H C.N.l.l.l.l.l.M.n.h.6 +XpXc     < ).<XqXgXhXgXhXhXhXyXuXuXeXeXeXuXeXeXeXeXeXuXeXuXhXaXB   ; u.l.l.l.M.n.M.G.G.G.K.D.S.N.l.l.2 ",
"+ T F w.n.l.l.l.l.l.n.D O pXpXc     !.:X0XeXgXhXuXgXhXgXyXgXhXyXeXyXgXiXeXeXeXyXgXeXuXhXhXaX+ < , u.l.l.l.m.x.c.c.w.w.[.[.[.6.:.2 ",
"^., j.l.n.m.m.x.M.m.x.= ( s %Xz     !.:X0XeXgXhXuXgXhXuXrXgXhXyXeXsXhXgXrXeXeXsXgXeXyXfXgXaXQ !.  5 x.m.m.x.m.l.S.S.w.n.c.x.F O /.",
"R.8 d.;.m.w.`.].8.8.]./ ( ( @     3 ).:X0XeXfXhXuXfXfXyXeXfXhXyXrXhXhXhXrXeXyXhXgXeXeXeXuXfX0X!.  : 3.Y.8.].].S.L.L.V.l.l.S.D.< +.",
"/.O < o.Y.].{.L.J.K.L.a.e.K O     !.:X:X0XeXeXfXyXeXeXeXeXeXfXyXrXfXfXfXeXeXyXhXfXeXeXeXeXeXqX).    7 L.K.L.L.L.L.L.L.S.l.D.C.Y 0 ",
"$.8 j.H.L.H.L.F.[.G.D.S.g.2   % O !.:X:X0XeXeXeXeX0XeXeXeXeXeXeXeXeXeXeXeXeXyXfXeXeXeXeXeXeXeX1X    , 3.G.D.N.S.[.[.L.L.S.l.N.a.< ",
"^., <.S.H.x.'.w.w.c.M.c.2.>   ! 3 !.:X:X0XeXeXeXeX<XqXeXeXeXeXeXeXeXeXeXeXeXeXeXeXeXeXeXeXeXeX1Xg     5 c.M.n.w.x.w.M.N.l.D.L.;.; ",
"/.@ h.n.x.w.n.w.x.w.w.x.5     ! m ).:X:X0XeXeXeXeX<XqXeXeXeXeXeXeXeXeXeXeXeXeXeXeXwX0XeXeXeXeX0X!.    5 w.w.x.c.l.m.n.l.l.d.J l.q ",
"2 R j.D.M.F.l.m.l.M.n.<.,     ! #..X:X:X0X0XwXeXeX<XqXeXeXeXeXeXeXeXeX0XeXeXeXeXeXqX<XeXeXeXeXqX/.    6 M.n.M.m.l.l.l.c.n.x.@ 0 b ",
"= j.l.L.L.K.B.n.c.x.w.6       ! #..X:X:X6X<XqXeXeX5XwXeXeXeXeXeXeXeXwX,XwXeXeXeXeXqX<XeXeXeXeXeX3Xm   ; 2.w.c.n.n.n.x.w.w.w.J 5.U ",
"' n U L.S.m.m.x.w.w.w.5       ! #..X:X:X:X:XqXeXeXeXeXeXeXeXeXeXeXeXwX,XwXeXeXeXeXqX<XeXeXeXeXeXeX$X    5 w.w.q.8.0.0.q.n.L L l.:.",
"' N J.L.S.l.l.n.c.w.1.>     < O.#..X:X:X:X:XqXeXeX0XwXeXeXeXeXeXeXeXwX,XwXeXeXeXeXwX5XeXeXeXeXeXwX=Xb   5 w.q.8.].].0.].e.o.< t , ",
"  0 L.D.D.S.l.l.l.V.8       ! #.#.(.:X:X:X:X6XwXeX<XqXeXeXeXeXeXeXeXwX,XwXeXeXeXeXwX7XeXeXwX0XeX0X:XQ.  , ,.].K.L.L.K.L.L.L.t.7 d ",
"! O 6 T N.N.N.l.l.<.,     b I.U.#.#.(.:X X:X:X6X7X,XqXeXeXeXeXeXeXeX6X>X7XeXeXeXeXqX<XeXeX0X<XwX5X:XQ.    , >.J.D.S.L.S.D.S.y.J.w ",
"  d.l.h.m.n.B.M.:.,     b ).:X_.U.#.#..X~..X:X:X:X:XqX7XwXeXeXeXeXwX:X:X>X7XeXeXwX5X,X7XeX0X,X5X:X&XU.d     8 l.l.l.l.l.l.l.l.H.6 ",
"+ 6 6 b.1.D D D >   V ` #X,X:X:X~.#.#.(.U..X:X:X:X:X5X>X6X6X7XeXeXwX:X:X:X>X6X6X5X:X:X,X6X5X:X&X X.X#.+.n   , r.B.m.x.x.l.l.:.= ` ",
";X+ 0 l.q         V 1XeXeX2X:X:X_.U.#.#.#.(.:X:X:X:X:X:X:X:X:X6X6X6X:X:X:X:X:X:X:X:X:X:X:X:X:X.X~.(.U._.).n   ; &.n.M.n.c.n.w.5 +.",
"+ L 7.0.M   m ' ' 1XeXeXeX7X,X:X:X_.(.(.U.#.(._.:X:X:X:X:X:X:X:X:X:X:X:X:X_.:X.XI.:X:X:X:X:X&X(.#.U._.:X:X).n   > D %.w.x.w.*.i v ",
"+ F 5.D N   W.eXeXeXeXeXeXeX7X,X:X:X:X:X_.(.(.(.:X:X:X:X_.:X_.:X:X:X:X:X&XU._.Q.# +._._.|.:X&X(.(._.:X:X:X<X#XV     , F F %.n.l.9 ",
"/.- R M M   V 1XeXeXeXeX7X6X/. X2X,X:X:X:X:X:X:X:X:X:X_.U.&XU.:X:X_._._.(.#.#.m . % #.#.~.:X:X:X:X:X:X:X:X2XeX1X+.+.+.V   M G.i.b ",
"R.q l.j.;.,   V 1XeX7X6X<XI.1 /.qX2X:X:X:X:X:X:X:X:X:XU.#.&X_.:X:X).(.(.#.#.+.O   + A (._.:X:X:X:X:X|.~ I.<X7XeXeXeX1XV   q j.N.2 ",
"W., u.l.l.0     R.5X<X:XI.1 Q 3XeX2X:X+.;X5X>X:X:X:X:X~.(.:X:X:X:X:X:X:X_.!.m .     # +.:X:X:X,X5X2X|.N < ~ E.7XeXeXW.  , :.6 T d ",
"  u.l.l.M.:.,   n ~ ~ ~ 1   #XeX7X,X+.% 1XeX7X6X5X>X:X_.:X:X:X:X:X:X:X:X:X X+         # +.>X6X7XeXwX2X|.N   3 ' P.P.V   e g.L 6., ",
"E.- H 6.x.x.*.y ,       Q T.3XeX2X+.% . 1XeXeXeXeX,X:X:X:X:X5X6X6X6X6X6X4X! .           # P.eXeXeXeXqX6X=XO.O.N       > L w.4.d.8 ",
"*X% u.l.l.M.'.0.E D :   V 3XeXW.~ % . ' 8XeXeXeXeX,X:X:X5X6XwXeXeXeXeX9X' X   X f p       % W.eXeXeXeXeXqX6X#Xn     > :.M.M.n.= Z ",
"E.m < 9 t 6 a.J.`.].t.<   V ' <       1XeXeXeXeX6X>X:X6XwXeXeXeXqX+.' ` X   X h l k f p     % ' ' ' ' ' ' ' V     2 t.l.l.S.a.0 # ",
"  W L.i.o.L.L.L.J.L.L.r.<             Q ' ' ' ;X>X:X6XwXeXeXqX+.` O       X h l l l l k p                       2 e.L.H.S.N.N.H.w ",
"  C.S.H.L.M.F.'.w.m.S.M.*.-                   N A A ` ` ` ` ` O         X h l l | | l l k p                   ; %.w.H.D.N.l.g.t + ",
"W.@ <.M.M.w.w.w.w.w.x.w.F @                                         X h h l l } X...l l l j                   @ H x.n.l.l.D.M.l.= ",
"Z U M.n.x.x.l.x.n.x.w.F @     m A A #                           . h h l l l } X.X.X.| l l k f       3 #.+.A b   = T l.M.l.m.c.d.b ",
"6 l.l.l.H.H.S.l.M.M.n.8     m +.#.(.I.<     f h h h h h h h h h h l l l } } X.X.X.X.X.} | l j     3 Q.:X&X(.+.b   0 m.w.x.w.w.D Q ",
"N R R Y J.V.x.c.w.w.w.6   m +.#.).:X:XQ.1   & k l | } l l l } } } } } } X.X.X.X.X.X.X...{ j $   3 !.:X:X:X X#.A   x q.q.5.x.M.m.z.",
"' 5 x w l.l.M.n.w.w.w.5   ! #.#..X:X:X:Xv   . j | X.X.C } } X.X.X.X.X.X.X.X.X.X.X.X...C j $     b :X:X:X:X X#.A   z 0.9 6 M G u.u ",
"  5.q.D c.M.l.l.n.x.'.z   ! #.#..X:X:X:Xv   . j C { { l C { { { { { { { { { { { { { C j $       + ~ :X:X.X~.#.A   w `.L.L.i.J.# d ",
"+ M ,.S.n.n.l.l.l.D.D.9   1 ~ #.~..X:X! +     $ & & & k l l l l l l l l l l l l l k & $           + A !.~.#.~ 1 6 i.L.H.L.H.H.t.n ",
"Z 6 C.H.S.N.S.l.l.l.l.<.,   < ~ #.~.A +               $ & & & & & & & & & & & & & $         - H     + d d d %   9 l.D.l.l.l.l.C.3 ",
"+ &.r n.x.w.w.c.n.S.D.D.u.,   < 3 3 O                                                     = :.5.L D           6 <.l.m.M.l.l.l.6 V ",
"/.! M w.n.n.w.x.w.[.G.K.F.4.E ;       F H +           . M D D G I G G D M .             = -.w.n.n.5.1.L 2.e.e.p.c.x.n.x.M.l.m.j.- ",
"-XS @ R j.l.m.l.x.'.m.c.c.n.n.-.*.H D *.1.@         . t =.&.E E ;.E *.*.*.M .         + H <.<.u.l.9 .     9 c.c.n.m.n.x.m.x.x.<.N ",
"$.< s.o.W v.].H.K.`.0.`.`.'.w.4.2.1.L &.;.H +       . J =.t.3.P P / P E L J O       + u :.=.^ ^ 6 XXpXpXpXc `.`.`.w.x.x.6.w.M.M 5 ",
"R.N D.H.F.L.L.L.B.F.{.D.A.- . . 6 =.L =.=.,.@       O W e.,.2.e.3.>.e.e.,.&.t .     @ ,.3.3.e.G   oX+XpXoXXX>.D.J.G.S.l.M.w.w.%.n ",
"-XN <.M.n.B.'.'.w.w.'.z.  h #.} 4 , ;.>.>.>.T +   . D E L L L E *.=.;.&.=.;.T .   + U >.:.:.;.+ c   OX$X( oX- m.M.V.B.l.m.M.<.@ S ",
"}.b Y l.n.n.x.w.n.c.w.5 * ..] $.[ . u :.>.r.e.@   . H *.E E =.L L L *.*.,.;.T .   @ ;.t.t.>.:.F c c a XXoX( z c.n.V.V.l.l.l.<.u ; ",
"R.0 H.S.M.M.M.M.l.M.m.- ..$. .C ) * u :.:.>., o . o T &.&.;.:.=.&.>.t.r.3.r.Y o . o , >.:.r.:.u t B : ( oX1.H H.H.G.K.D.S.l.j.<.N ",
"}.V t n.c.n.l.l.l.l.n.6.  $ $ $ $ O =.L *.*.H H H i &.:.:.:.:.&.*.E &.E L =./ H G F J *.=.=.&.:.T t t u <.z.'.B.n.w.'.[.B.B.2.O ^.",
";X#X2 F.m.M.M.M.l.M.m.M.u.O ) ) = D L L L *.=.&.;.:.:.:.&.&.:.&.=.;.:.;.*.*.*.L L L L =.=.&.;.:.:.;.<.d.M.m.M.l.M.M.w.n.w.c.M.:.$.",
"}.2 Z.L.J.].Y.`.0.8.].`.,.6 @Xb 0 T :.;.>.r.:.&.&.&.&.P / P P ^ / E r.t.3.=.:.;.;.;.r.>.:.&.&.;.*.^ Y.8.8.].`.M.L.L.B.l.x.6.:.T +.",
"R.N J.J.L.D.L.L.K.K.L.L.J.i.i.i.g.y.t.t.t.,.E P ^ K ^ P e.t.3.t.t.e.t.t.t.>.:.r.t.t.r.=.L ^ P P Y.].L.J.K.L.L.J.L.L.L.n.q.w.4.: #X",
"}.7 0 8 j.l.S.S.F.L.D.S.H.V.V.L.L.S.j.j.y.^ 3.e.t.e.t.t.t.2.3.e.:.>.e.E t.t.t.:.:.:.,.^ p.F.K.J.L.L.G.[.J.D.N.H.V.[.L.'.0.0.q.x /.",
";X#X- h.l.n.j.x.w.b.M.n.w.w.'.N.l.l.S.H.A.J.A.k.h.i.;.%.%.L *.&.:.L L L =.:.:.y.J.C.A.J.A.l.;.y.z.w.w.q.m.M.n.w.w.J B.n.x.q.5 Z ;X",
";X}.0 l.h.H :.5 q.D w.J z.u.z.<.<.l.u.R j.N.l.h.l.6 5.z.6.6.6.M L J t h.z.b.:.S.t.d.l.N.h.L 5.6 F n.L J w.J 5.5.j.0 ;.d.;.l.d.+.*X",
"*X*XZ 0 8 ~ +.E.Q J w.x , ; H d.@ :.:.@ 0 l.j.0 :., l.t 4.F l.H m V T :.N 0 < w @ j.&.l.d.= x O t :.b 2 x = h.R @ % ' v 9 h.6 E.*X",
"*X;X;X/.}.;X;X;X#Xv @ d #X^.! < ^.$.' ^._ 0 N P.` % 2 V 1 d 2 % @X*XS Q #X^.E.Z +.- d 8 6 E.^.^.' ! E.#X#XS O O R.;X-X-X^.' W.;X*X"
};
